<mxfile host="app.diagrams.net" agent="Mozilla/5.0 (Macintosh; Intel Mac OS X 10_15_7) AppleWebKit/537.36 (KHTML, like Gecko) Chrome/130.0.0.0 Safari/537.36" version="24.8.3" pages="5">
  <diagram name="Sep24 - deposit v.0.4" id="1N5h_QzITGnwtF8g-yVw">
    <mxGraphModel dx="2059" dy="1080" grid="1" gridSize="10" guides="1" tooltips="1" connect="1" arrows="1" fold="1" page="1" pageScale="1" pageWidth="850" pageHeight="1100" math="0" shadow="0">
      <root>
        <mxCell id="0" />
        <mxCell id="1" parent="0" />
        <mxCell id="XePxqIcqoSYK1fd4uLqz-1" value="" style="rounded=0;whiteSpace=wrap;html=1;strokeWidth=0;glass=0;strokeColor=#c521c8;fontColor=#c521c8;" parent="1" vertex="1">
          <mxGeometry x="60" y="57" width="1180" height="793" as="geometry" />
        </mxCell>
        <mxCell id="XePxqIcqoSYK1fd4uLqz-2" value="" style="group" parent="1" vertex="1" connectable="0">
          <mxGeometry x="680" y="140" width="508" height="163" as="geometry" />
        </mxCell>
        <mxCell id="XePxqIcqoSYK1fd4uLqz-3" value="" style="rounded=1;whiteSpace=wrap;html=1;fillColor=#d5e8d4;strokeColor=#82b366;" parent="XePxqIcqoSYK1fd4uLqz-2" vertex="1">
          <mxGeometry x="240" y="5" width="50" height="20" as="geometry" />
        </mxCell>
        <mxCell id="XePxqIcqoSYK1fd4uLqz-4" value="shortest e2e status flow" style="text;strokeColor=none;align=center;fillColor=none;html=1;verticalAlign=middle;whiteSpace=wrap;rounded=0;" parent="XePxqIcqoSYK1fd4uLqz-2" vertex="1">
          <mxGeometry x="290" width="140" height="30" as="geometry" />
        </mxCell>
        <mxCell id="XePxqIcqoSYK1fd4uLqz-5" value="" style="rounded=1;whiteSpace=wrap;html=1;fillColor=#fff2cc;strokeColor=#d6b656;" parent="XePxqIcqoSYK1fd4uLqz-2" vertex="1">
          <mxGeometry x="240" y="30" width="50" height="20" as="geometry" />
        </mxCell>
        <mxCell id="XePxqIcqoSYK1fd4uLqz-6" value="optional status, available for business" style="text;strokeColor=none;align=center;fillColor=none;html=1;verticalAlign=middle;whiteSpace=wrap;rounded=0;" parent="XePxqIcqoSYK1fd4uLqz-2" vertex="1">
          <mxGeometry x="288" y="25" width="220" height="30" as="geometry" />
        </mxCell>
        <mxCell id="XePxqIcqoSYK1fd4uLqz-7" value="(&lt;font style=&quot;border-color: var(--border-color); text-align: left;&quot; color=&quot;#66b2ff&quot;&gt;function&lt;/font&gt;&lt;span style=&quot;text-align: left;&quot;&gt;)&lt;/span&gt;" style="rounded=1;whiteSpace=wrap;html=1;fillColor=none;strokeColor=none;" parent="XePxqIcqoSYK1fd4uLqz-2" vertex="1">
          <mxGeometry x="240" y="55" width="54" height="20" as="geometry" />
        </mxCell>
        <mxCell id="XePxqIcqoSYK1fd4uLqz-8" value="&lt;font style=&quot;border-color: var(--border-color); text-align: left;&quot;&gt;a side effect that will be triggered by an action&lt;br style=&quot;border-color: var(--border-color);&quot;&gt;&lt;/font&gt;if its Anchor is in custody mode" style="text;strokeColor=none;align=left;fillColor=none;html=1;verticalAlign=middle;whiteSpace=wrap;rounded=0;labelPosition=right;verticalLabelPosition=middle;" parent="XePxqIcqoSYK1fd4uLqz-2" vertex="1">
          <mxGeometry y="55" width="300" height="30" as="geometry" />
        </mxCell>
        <mxCell id="XePxqIcqoSYK1fd4uLqz-9" value="" style="endArrow=open;html=1;rounded=0;endFill=0;strokeColor=#9b1599;strokeWidth=2;" parent="XePxqIcqoSYK1fd4uLqz-2" edge="1">
          <mxGeometry width="50" height="50" relative="1" as="geometry">
            <mxPoint x="240" y="95" as="sourcePoint" />
            <mxPoint x="290" y="95" as="targetPoint" />
          </mxGeometry>
        </mxCell>
        <mxCell id="XePxqIcqoSYK1fd4uLqz-10" value="&lt;font style=&quot;border-color: var(--border-color);&quot;&gt;actions available for a business that&lt;br style=&quot;border-color: var(--border-color);&quot;&gt;&lt;/font&gt;doesn&#39;t use custody. Can be used to reflect &lt;br&gt;trustline&amp;nbsp;&lt;span style=&quot;&quot;&gt;state on a destination account&lt;/span&gt;" style="text;strokeColor=none;align=left;fillColor=none;html=1;verticalAlign=middle;whiteSpace=wrap;rounded=0;labelPosition=right;verticalLabelPosition=middle;" parent="XePxqIcqoSYK1fd4uLqz-2" vertex="1">
          <mxGeometry y="95" width="300" height="30" as="geometry" />
        </mxCell>
        <mxCell id="XePxqIcqoSYK1fd4uLqz-11" value="" style="endArrow=open;html=1;rounded=0;endFill=0;strokeColor=#BD7000;strokeWidth=2;fillColor=#f0a30a;" parent="XePxqIcqoSYK1fd4uLqz-2" edge="1">
          <mxGeometry width="50" height="50" relative="1" as="geometry">
            <mxPoint x="240" y="144" as="sourcePoint" />
            <mxPoint x="290" y="144" as="targetPoint" />
          </mxGeometry>
        </mxCell>
        <mxCell id="XePxqIcqoSYK1fd4uLqz-12" value="&lt;font style=&quot;border-color: var(--border-color); text-align: left;&quot;&gt;actions&amp;nbsp;available for a business that&lt;br style=&quot;border-color: var(--border-color);&quot;&gt;&lt;/font&gt;uses custody service" style="text;strokeColor=none;align=left;fillColor=none;html=1;verticalAlign=middle;whiteSpace=wrap;rounded=0;labelPosition=right;verticalLabelPosition=middle;" parent="XePxqIcqoSYK1fd4uLqz-2" vertex="1">
          <mxGeometry y="134" width="300" height="30" as="geometry" />
        </mxCell>
        <mxCell id="XePxqIcqoSYK1fd4uLqz-13" style="edgeStyle=orthogonalEdgeStyle;rounded=1;orthogonalLoop=1;jettySize=auto;html=1;exitX=1;exitY=0.5;exitDx=0;exitDy=0;entryX=0.5;entryY=0;entryDx=0;entryDy=0;endArrow=open;endFill=0;jumpStyle=none;strokeWidth=2;" parent="1" source="XePxqIcqoSYK1fd4uLqz-15" target="XePxqIcqoSYK1fd4uLqz-35" edge="1">
          <mxGeometry relative="1" as="geometry">
            <mxPoint x="591" y="175" as="sourcePoint" />
          </mxGeometry>
        </mxCell>
        <mxCell id="XePxqIcqoSYK1fd4uLqz-14" value="notify_interactive_flow_completed" style="edgeLabel;html=1;align=center;verticalAlign=middle;resizable=0;points=[];" parent="XePxqIcqoSYK1fd4uLqz-13" vertex="1" connectable="0">
          <mxGeometry x="0.6017" relative="1" as="geometry">
            <mxPoint y="13" as="offset" />
          </mxGeometry>
        </mxCell>
        <mxCell id="XePxqIcqoSYK1fd4uLqz-15" value="" style="rounded=1;whiteSpace=wrap;html=1;fillColor=#d5e8d4;strokeColor=none;align=left;verticalAlign=top;" parent="1" vertex="1">
          <mxGeometry x="376" y="140" width="180" height="70" as="geometry" />
        </mxCell>
        <mxCell id="XePxqIcqoSYK1fd4uLqz-16" style="edgeStyle=orthogonalEdgeStyle;rounded=0;orthogonalLoop=1;jettySize=auto;html=1;exitX=0.5;exitY=1;exitDx=0;exitDy=0;entryX=0.5;entryY=0;entryDx=0;entryDy=0;strokeWidth=2;endArrow=open;endFill=0;" parent="1" edge="1">
          <mxGeometry relative="1" as="geometry">
            <mxPoint x="460" y="400" as="sourcePoint" />
            <mxPoint x="460" y="522" as="targetPoint" />
          </mxGeometry>
        </mxCell>
        <mxCell id="XePxqIcqoSYK1fd4uLqz-17" value="notify_offchain_funds_received" style="edgeLabel;html=1;align=center;verticalAlign=middle;resizable=0;points=[];" parent="XePxqIcqoSYK1fd4uLqz-16" vertex="1" connectable="0">
          <mxGeometry x="-0.0219" y="-3" relative="1" as="geometry">
            <mxPoint x="3" as="offset" />
          </mxGeometry>
        </mxCell>
        <mxCell id="XePxqIcqoSYK1fd4uLqz-18" value="(Create custody transaction*)" style="edgeLabel;html=1;align=center;verticalAlign=middle;resizable=0;points=[];fontColor=#67bbfd;" parent="XePxqIcqoSYK1fd4uLqz-16" vertex="1" connectable="0">
          <mxGeometry x="0.4595" y="1" relative="1" as="geometry">
            <mxPoint x="9" y="-9" as="offset" />
          </mxGeometry>
        </mxCell>
        <mxCell id="XePxqIcqoSYK1fd4uLqz-19" style="edgeStyle=orthogonalEdgeStyle;rounded=1;orthogonalLoop=1;jettySize=auto;html=1;exitX=1;exitY=0.5;exitDx=0;exitDy=0;entryX=0.5;entryY=0;entryDx=0;entryDy=0;strokeWidth=2;endArrow=open;endFill=0;" parent="1" source="XePxqIcqoSYK1fd4uLqz-21" target="XePxqIcqoSYK1fd4uLqz-37" edge="1">
          <mxGeometry relative="1" as="geometry" />
        </mxCell>
        <mxCell id="XePxqIcqoSYK1fd4uLqz-20" value="&lt;font style=&quot;font-size: 11px;&quot;&gt;notify_offchain_funds_sent&lt;/font&gt;" style="edgeLabel;html=1;align=center;verticalAlign=middle;resizable=0;points=[];" parent="XePxqIcqoSYK1fd4uLqz-19" vertex="1" connectable="0">
          <mxGeometry x="0.7925" relative="1" as="geometry">
            <mxPoint as="offset" />
          </mxGeometry>
        </mxCell>
        <mxCell id="XePxqIcqoSYK1fd4uLqz-21" value="" style="rounded=1;whiteSpace=wrap;html=1;fillColor=#d5e8d4;strokeColor=none;" parent="1" vertex="1">
          <mxGeometry x="376" y="330" width="180" height="70" as="geometry" />
        </mxCell>
        <mxCell id="XePxqIcqoSYK1fd4uLqz-22" style="edgeStyle=orthogonalEdgeStyle;rounded=1;orthogonalLoop=1;jettySize=auto;html=1;exitX=0.007;exitY=0.413;exitDx=0;exitDy=0;entryX=0.5;entryY=0;entryDx=0;entryDy=0;strokeWidth=2;endArrow=open;endFill=0;exitPerimeter=0;" parent="1" source="XePxqIcqoSYK1fd4uLqz-31" target="XePxqIcqoSYK1fd4uLqz-52" edge="1">
          <mxGeometry relative="1" as="geometry" />
        </mxCell>
        <mxCell id="XePxqIcqoSYK1fd4uLqz-23" value="notify_refund_pending" style="edgeLabel;html=1;align=center;verticalAlign=middle;resizable=0;points=[];" parent="XePxqIcqoSYK1fd4uLqz-22" vertex="1" connectable="0">
          <mxGeometry x="0.7751" y="1" relative="1" as="geometry">
            <mxPoint x="-1" y="-4" as="offset" />
          </mxGeometry>
        </mxCell>
        <mxCell id="XePxqIcqoSYK1fd4uLqz-24" style="rounded=0;orthogonalLoop=1;jettySize=auto;html=1;exitX=0.139;exitY=0.971;exitDx=0;exitDy=0;exitPerimeter=0;strokeWidth=2;endArrow=open;endFill=0;entryX=0.5;entryY=0;entryDx=0;entryDy=0;" parent="1" target="XePxqIcqoSYK1fd4uLqz-65" edge="1">
          <mxGeometry relative="1" as="geometry">
            <mxPoint x="391.99" y="718.02" as="targetPoint" />
            <mxPoint x="393.02" y="589.97" as="sourcePoint" />
          </mxGeometry>
        </mxCell>
        <mxCell id="XePxqIcqoSYK1fd4uLqz-25" value="notify_refund_sent" style="edgeLabel;html=1;align=center;verticalAlign=middle;resizable=0;points=[];" parent="XePxqIcqoSYK1fd4uLqz-24" vertex="1" connectable="0">
          <mxGeometry x="0.2745" y="-2" relative="1" as="geometry">
            <mxPoint y="10" as="offset" />
          </mxGeometry>
        </mxCell>
        <mxCell id="XePxqIcqoSYK1fd4uLqz-26" style="edgeStyle=orthogonalEdgeStyle;rounded=1;orthogonalLoop=1;jettySize=auto;html=1;entryX=0.577;entryY=0.025;entryDx=0;entryDy=0;entryPerimeter=0;fillColor=#f0a30a;strokeColor=#BD7000;strokeWidth=2;endArrow=open;endFill=0;" parent="1" edge="1">
          <mxGeometry relative="1" as="geometry">
            <mxPoint x="557" y="539" as="sourcePoint" />
            <mxPoint x="1016.0100000000002" y="600.0049999999999" as="targetPoint" />
          </mxGeometry>
        </mxCell>
        <mxCell id="XePxqIcqoSYK1fd4uLqz-27" value="do_stellar_payment" style="edgeLabel;html=1;align=center;verticalAlign=middle;resizable=0;points=[];fontColor=#e0400b;" parent="XePxqIcqoSYK1fd4uLqz-26" vertex="1" connectable="0">
          <mxGeometry x="-0.389" y="-1" relative="1" as="geometry">
            <mxPoint x="-80" y="-1" as="offset" />
          </mxGeometry>
        </mxCell>
        <mxCell id="XePxqIcqoSYK1fd4uLqz-28" value="(Do custody payment)" style="edgeLabel;html=1;align=center;verticalAlign=middle;resizable=0;points=[];fontColor=#67b4fc;" parent="XePxqIcqoSYK1fd4uLqz-26" vertex="1" connectable="0">
          <mxGeometry x="0.8848" y="-1" relative="1" as="geometry">
            <mxPoint y="-5" as="offset" />
          </mxGeometry>
        </mxCell>
        <mxCell id="XePxqIcqoSYK1fd4uLqz-29" style="edgeStyle=orthogonalEdgeStyle;rounded=1;orthogonalLoop=1;jettySize=auto;html=1;exitX=1;exitY=0.5;exitDx=0;exitDy=0;entryX=0.25;entryY=0;entryDx=0;entryDy=0;fillColor=#e1d5e7;strokeColor=#9c079c;strokeWidth=2;endArrow=open;endFill=0;" parent="1" source="XePxqIcqoSYK1fd4uLqz-31" target="XePxqIcqoSYK1fd4uLqz-59" edge="1">
          <mxGeometry relative="1" as="geometry">
            <Array as="points">
              <mxPoint x="687" y="559" />
            </Array>
          </mxGeometry>
        </mxCell>
        <mxCell id="XePxqIcqoSYK1fd4uLqz-30" value="request_trust" style="edgeLabel;html=1;align=center;verticalAlign=middle;resizable=0;points=[];fontColor=#b60fcc;" parent="XePxqIcqoSYK1fd4uLqz-29" vertex="1" connectable="0">
          <mxGeometry x="-0.1111" relative="1" as="geometry">
            <mxPoint as="offset" />
          </mxGeometry>
        </mxCell>
        <mxCell id="XePxqIcqoSYK1fd4uLqz-31" value="" style="rounded=1;whiteSpace=wrap;html=1;fillColor=#d5e8d4;strokeColor=none;" parent="1" vertex="1">
          <mxGeometry x="376" y="522" width="180" height="70" as="geometry" />
        </mxCell>
        <mxCell id="XePxqIcqoSYK1fd4uLqz-32" value="" style="endArrow=open;html=1;rounded=0;entryX=0.5;entryY=0;entryDx=0;entryDy=0;strokeWidth=2;endFill=0;" parent="1" edge="1">
          <mxGeometry width="50" height="50" relative="1" as="geometry">
            <mxPoint x="459.5" y="210" as="sourcePoint" />
            <mxPoint x="459.5" y="330" as="targetPoint" />
          </mxGeometry>
        </mxCell>
        <mxCell id="XePxqIcqoSYK1fd4uLqz-33" value="request_offchain_funds" style="edgeLabel;html=1;align=center;verticalAlign=middle;resizable=0;points=[];" parent="XePxqIcqoSYK1fd4uLqz-32" connectable="0" vertex="1">
          <mxGeometry x="-0.495" relative="1" as="geometry">
            <mxPoint x="7" y="53" as="offset" />
          </mxGeometry>
        </mxCell>
        <mxCell id="XePxqIcqoSYK1fd4uLqz-34" style="edgeStyle=orthogonalEdgeStyle;orthogonalLoop=1;jettySize=auto;html=1;exitX=0;exitY=0.5;exitDx=0;exitDy=0;rounded=1;strokeWidth=2;endArrow=open;endFill=0;" parent="1" source="XePxqIcqoSYK1fd4uLqz-35" edge="1">
          <mxGeometry relative="1" as="geometry">
            <mxPoint x="460" y="270" as="targetPoint" />
          </mxGeometry>
        </mxCell>
        <mxCell id="XePxqIcqoSYK1fd4uLqz-35" value="" style="rounded=1;whiteSpace=wrap;html=1;fillColor=#fff2cc;strokeColor=none;" parent="1" vertex="1">
          <mxGeometry x="667" y="213" width="130" height="60" as="geometry" />
        </mxCell>
        <mxCell id="XePxqIcqoSYK1fd4uLqz-36" style="edgeStyle=orthogonalEdgeStyle;rounded=0;orthogonalLoop=1;jettySize=auto;html=1;exitX=-0.008;exitY=0.633;exitDx=0;exitDy=0;strokeWidth=2;endArrow=open;endFill=0;exitPerimeter=0;" parent="1" source="XePxqIcqoSYK1fd4uLqz-37" edge="1">
          <mxGeometry relative="1" as="geometry">
            <mxPoint x="460" y="438" as="targetPoint" />
            <mxPoint x="628" y="438" as="sourcePoint" />
          </mxGeometry>
        </mxCell>
        <mxCell id="XePxqIcqoSYK1fd4uLqz-37" value="" style="rounded=1;whiteSpace=wrap;html=1;fillColor=#fff2cc;strokeColor=none;" parent="1" vertex="1">
          <mxGeometry x="668" y="400" width="130" height="60" as="geometry" />
        </mxCell>
        <mxCell id="XePxqIcqoSYK1fd4uLqz-38" value="SEP24 deposit flow" style="text;html=1;strokeColor=none;fillColor=none;align=center;verticalAlign=middle;whiteSpace=wrap;rounded=0;fontSize=17;fontStyle=1" parent="1" vertex="1">
          <mxGeometry x="360" y="75" width="250" height="30" as="geometry" />
        </mxCell>
        <mxCell id="XePxqIcqoSYK1fd4uLqz-39" style="edgeStyle=orthogonalEdgeStyle;rounded=1;orthogonalLoop=1;jettySize=auto;html=1;exitX=0.5;exitY=1;exitDx=0;exitDy=0;entryX=0;entryY=0.25;entryDx=0;entryDy=0;strokeWidth=2;endArrow=open;endFill=0;" parent="1" source="XePxqIcqoSYK1fd4uLqz-41" target="XePxqIcqoSYK1fd4uLqz-31" edge="1">
          <mxGeometry relative="1" as="geometry" />
        </mxCell>
        <mxCell id="XePxqIcqoSYK1fd4uLqz-40" value="notify _transaction_recovery" style="edgeLabel;html=1;align=center;verticalAlign=middle;resizable=0;points=[];" parent="XePxqIcqoSYK1fd4uLqz-39" vertex="1" connectable="0">
          <mxGeometry x="-0.0626" y="-1" relative="1" as="geometry">
            <mxPoint x="-53" y="-30" as="offset" />
          </mxGeometry>
        </mxCell>
        <mxCell id="XePxqIcqoSYK1fd4uLqz-41" value="" style="rounded=1;whiteSpace=wrap;html=1;fillColor=#f8cecc;strokeColor=none;" parent="1" vertex="1">
          <mxGeometry x="130" y="421" width="130" height="60" as="geometry" />
        </mxCell>
        <mxCell id="XePxqIcqoSYK1fd4uLqz-42" value="&lt;font&gt;incomplete&lt;/font&gt;" style="rounded=1;whiteSpace=wrap;html=1;verticalAlign=top;align=left;fillColor=#6d8764;fontFamily=Tahoma;strokeColor=none;fontColor=#ffffff;" parent="1" vertex="1">
          <mxGeometry x="380.5" y="146" width="75" height="26" as="geometry" />
        </mxCell>
        <mxCell id="XePxqIcqoSYK1fd4uLqz-43" value="&lt;font face=&quot;Tahoma&quot;&gt;pending_anchor&lt;/font&gt;" style="rounded=1;whiteSpace=wrap;html=1;align=left;verticalAlign=top;strokeColor=none;fillColor=#f0a30a;fontColor=#000000;" parent="1" vertex="1">
          <mxGeometry x="672" y="218" width="90" height="28" as="geometry" />
        </mxCell>
        <mxCell id="XePxqIcqoSYK1fd4uLqz-44" style="edgeStyle=orthogonalEdgeStyle;rounded=1;orthogonalLoop=1;jettySize=auto;html=1;exitX=0.5;exitY=1;exitDx=0;exitDy=0;entryX=0.5;entryY=0;entryDx=0;entryDy=0;strokeWidth=2;endArrow=open;endFill=0;" parent="1" edge="1">
          <mxGeometry relative="1" as="geometry">
            <mxPoint x="196" y="356" as="sourcePoint" />
            <mxPoint x="196" y="421" as="targetPoint" />
          </mxGeometry>
        </mxCell>
        <mxCell id="XePxqIcqoSYK1fd4uLqz-45" value="notify_transaction_error&lt;br style=&quot;border-color: var(--border-color);&quot;&gt;notify_transaction_expired" style="edgeLabel;html=1;align=center;verticalAlign=middle;resizable=0;points=[];" parent="XePxqIcqoSYK1fd4uLqz-44" vertex="1" connectable="0">
          <mxGeometry x="0.1385" y="-3" relative="1" as="geometry">
            <mxPoint x="2" y="-10" as="offset" />
          </mxGeometry>
        </mxCell>
        <mxCell id="XePxqIcqoSYK1fd4uLqz-46" value="&lt;font style=&quot;&quot; face=&quot;Tahoma&quot;&gt;Any status other than completed or refunded&lt;/font&gt;" style="rounded=1;whiteSpace=wrap;html=1;fillColor=#f5f5f5;align=center;verticalAlign=top;fontColor=#333333;strokeColor=none;" parent="1" vertex="1">
          <mxGeometry x="126" y="293" width="138" height="63" as="geometry" />
        </mxCell>
        <mxCell id="XePxqIcqoSYK1fd4uLqz-47" value="&lt;font face=&quot;Tahoma&quot;&gt;pending_external&lt;/font&gt;" style="rounded=1;whiteSpace=wrap;html=1;align=left;verticalAlign=top;strokeColor=none;fillColor=#f0a30a;fontColor=#000000;" parent="1" vertex="1">
          <mxGeometry x="674" y="406" width="106" height="34" as="geometry" />
        </mxCell>
        <mxCell id="XePxqIcqoSYK1fd4uLqz-48" value="pending_user_transfer_start" style="rounded=1;whiteSpace=wrap;html=1;verticalAlign=top;align=left;fillColor=#6d8764;fontFamily=Tahoma;strokeColor=none;fontColor=#ffffff;" parent="1" vertex="1">
          <mxGeometry x="380" y="334" width="157.5" height="30" as="geometry" />
        </mxCell>
        <mxCell id="XePxqIcqoSYK1fd4uLqz-49" value="&lt;font face=&quot;Tahoma&quot;&gt;error/expired&lt;/font&gt;" style="rounded=1;whiteSpace=wrap;html=1;align=left;verticalAlign=top;strokeColor=none;fillColor=#e51400;fontColor=#ffffff;" parent="1" vertex="1">
          <mxGeometry x="138" y="427" width="80" height="25" as="geometry" />
        </mxCell>
        <mxCell id="XePxqIcqoSYK1fd4uLqz-50" value="pending_anchor" style="rounded=1;whiteSpace=wrap;html=1;verticalAlign=top;align=left;fillColor=#6d8764;fontFamily=Tahoma;strokeColor=none;fontColor=#ffffff;" parent="1" vertex="1">
          <mxGeometry x="380.5" y="527" width="100" height="24" as="geometry" />
        </mxCell>
        <mxCell id="XePxqIcqoSYK1fd4uLqz-51" style="edgeStyle=orthogonalEdgeStyle;rounded=1;orthogonalLoop=1;jettySize=auto;html=1;exitX=1;exitY=0.75;exitDx=0;exitDy=0;strokeWidth=2;endArrow=open;endFill=0;" parent="1" edge="1">
          <mxGeometry relative="1" as="geometry">
            <mxPoint x="391" y="645" as="targetPoint" />
            <mxPoint x="261" y="645" as="sourcePoint" />
          </mxGeometry>
        </mxCell>
        <mxCell id="XePxqIcqoSYK1fd4uLqz-52" value="" style="rounded=1;whiteSpace=wrap;html=1;fillColor=#fff2cc;strokeColor=none;" parent="1" vertex="1">
          <mxGeometry x="130" y="600" width="130" height="60" as="geometry" />
        </mxCell>
        <mxCell id="XePxqIcqoSYK1fd4uLqz-53" value="&lt;font face=&quot;Tahoma&quot;&gt;pending_external&lt;/font&gt;" style="rounded=1;whiteSpace=wrap;html=1;align=left;verticalAlign=top;strokeColor=none;fillColor=#f0a30a;fontColor=#000000;" parent="1" vertex="1">
          <mxGeometry x="138" y="606" width="100" height="30" as="geometry" />
        </mxCell>
        <mxCell id="XePxqIcqoSYK1fd4uLqz-54" style="edgeStyle=orthogonalEdgeStyle;rounded=1;orthogonalLoop=1;jettySize=auto;html=1;exitX=0;exitY=0.5;exitDx=0;exitDy=0;strokeWidth=2;endArrow=open;endFill=0;entryX=0.867;entryY=1.014;entryDx=0;entryDy=0;entryPerimeter=0;strokeColor=#c521c8;" parent="1" target="XePxqIcqoSYK1fd4uLqz-31" edge="1">
          <mxGeometry relative="1" as="geometry">
            <mxPoint x="660" y="635" as="sourcePoint" />
            <mxPoint x="518.02" y="592.03" as="targetPoint" />
          </mxGeometry>
        </mxCell>
        <mxCell id="XePxqIcqoSYK1fd4uLqz-55" value="notify_trust_set" style="edgeLabel;html=1;align=center;verticalAlign=middle;resizable=0;points=[];fontColor=#c521c8;" parent="XePxqIcqoSYK1fd4uLqz-54" vertex="1" connectable="0">
          <mxGeometry x="-0.1472" y="2" relative="1" as="geometry">
            <mxPoint y="-3" as="offset" />
          </mxGeometry>
        </mxCell>
        <mxCell id="XePxqIcqoSYK1fd4uLqz-56" style="edgeStyle=orthogonalEdgeStyle;rounded=0;orthogonalLoop=1;jettySize=auto;html=1;exitX=1;exitY=0.5;exitDx=0;exitDy=0;entryX=0;entryY=0.5;entryDx=0;entryDy=0;fillColor=#f0a30a;strokeColor=#BD7000;strokeWidth=2;endArrow=open;endFill=0;" parent="1" source="XePxqIcqoSYK1fd4uLqz-59" target="XePxqIcqoSYK1fd4uLqz-63" edge="1">
          <mxGeometry relative="1" as="geometry" />
        </mxCell>
        <mxCell id="XePxqIcqoSYK1fd4uLqz-57" value="notify_trust_set" style="edgeLabel;html=1;align=center;verticalAlign=middle;resizable=0;points=[];" parent="XePxqIcqoSYK1fd4uLqz-56" vertex="1" connectable="0">
          <mxGeometry x="-0.0988" relative="1" as="geometry">
            <mxPoint as="offset" />
          </mxGeometry>
        </mxCell>
        <mxCell id="XePxqIcqoSYK1fd4uLqz-58" value="(Do custody payment)" style="edgeLabel;html=1;align=center;verticalAlign=middle;resizable=0;points=[];fontColor=#84c7ff;" parent="XePxqIcqoSYK1fd4uLqz-56" vertex="1" connectable="0">
          <mxGeometry x="0.6262" y="-3" relative="1" as="geometry">
            <mxPoint x="-54" y="10" as="offset" />
          </mxGeometry>
        </mxCell>
        <mxCell id="XePxqIcqoSYK1fd4uLqz-59" value="" style="rounded=1;whiteSpace=wrap;html=1;fillColor=#fff2cc;strokeColor=none;" parent="1" vertex="1">
          <mxGeometry x="654" y="600" width="130" height="60" as="geometry" />
        </mxCell>
        <mxCell id="XePxqIcqoSYK1fd4uLqz-60" value="&lt;font face=&quot;Tahoma&quot;&gt;pending_trust&lt;/font&gt;" style="rounded=1;whiteSpace=wrap;html=1;align=left;verticalAlign=top;strokeColor=none;fillColor=#f0a30a;fontColor=#000000;" parent="1" vertex="1">
          <mxGeometry x="660" y="606" width="100" height="30" as="geometry" />
        </mxCell>
        <mxCell id="XePxqIcqoSYK1fd4uLqz-61" style="edgeStyle=orthogonalEdgeStyle;rounded=1;orthogonalLoop=1;jettySize=auto;html=1;exitX=0.5;exitY=1;exitDx=0;exitDy=0;strokeWidth=2;fillColor=#f0a30a;strokeColor=#BD7000;endArrow=open;endFill=0;" parent="1" edge="1">
          <mxGeometry relative="1" as="geometry">
            <mxPoint x="510" y="674" as="targetPoint" />
            <Array as="points">
              <mxPoint x="1009" y="675" />
            </Array>
            <mxPoint x="1009" y="656" as="sourcePoint" />
          </mxGeometry>
        </mxCell>
        <mxCell id="XePxqIcqoSYK1fd4uLqz-62" value="(Update custody payment)" style="edgeLabel;html=1;align=center;verticalAlign=middle;resizable=0;points=[];fontColor=#7fcffe;" parent="XePxqIcqoSYK1fd4uLqz-61" vertex="1" connectable="0">
          <mxGeometry x="0.1115" relative="1" as="geometry">
            <mxPoint as="offset" />
          </mxGeometry>
        </mxCell>
        <mxCell id="XePxqIcqoSYK1fd4uLqz-63" value="" style="rounded=1;whiteSpace=wrap;html=1;fillColor=#fff2cc;strokeColor=none;" parent="1" vertex="1">
          <mxGeometry x="944" y="601" width="130" height="60" as="geometry" />
        </mxCell>
        <mxCell id="XePxqIcqoSYK1fd4uLqz-64" value="&lt;font face=&quot;Tahoma&quot;&gt;pending_stellar&lt;/font&gt;" style="rounded=1;whiteSpace=wrap;html=1;align=left;verticalAlign=top;strokeColor=none;fillColor=#f0a30a;fontColor=#000000;" parent="1" vertex="1">
          <mxGeometry x="950" y="607" width="100" height="30" as="geometry" />
        </mxCell>
        <mxCell id="XePxqIcqoSYK1fd4uLqz-65" value="" style="rounded=1;whiteSpace=wrap;html=1;fillColor=#d5e8d4;strokeColor=none;" parent="1" vertex="1">
          <mxGeometry x="325.5" y="737" width="130" height="60" as="geometry" />
        </mxCell>
        <mxCell id="XePxqIcqoSYK1fd4uLqz-66" value="refunded" style="rounded=1;whiteSpace=wrap;html=1;verticalAlign=top;align=left;fillColor=#6d8764;fontFamily=Tahoma;strokeColor=none;fontColor=#ffffff;" parent="1" vertex="1">
          <mxGeometry x="332" y="742" width="59.5" height="24" as="geometry" />
        </mxCell>
        <mxCell id="XePxqIcqoSYK1fd4uLqz-67" value="" style="rounded=1;whiteSpace=wrap;html=1;fillColor=#d5e8d4;strokeColor=none;" parent="1" vertex="1">
          <mxGeometry x="480" y="737" width="130" height="60" as="geometry" />
        </mxCell>
        <mxCell id="XePxqIcqoSYK1fd4uLqz-68" value="completed" style="rounded=1;whiteSpace=wrap;html=1;verticalAlign=top;align=left;fillColor=#6d8764;fontFamily=Tahoma;strokeColor=none;fontColor=#ffffff;" parent="1" vertex="1">
          <mxGeometry x="485.5" y="742" width="78.5" height="24" as="geometry" />
        </mxCell>
        <mxCell id="XePxqIcqoSYK1fd4uLqz-69" value="" style="endArrow=open;html=1;entryX=0.815;entryY=0.013;entryDx=0;entryDy=0;entryPerimeter=0;strokeWidth=2;fillColor=#f0a30a;strokeColor=#BD7000;endFill=0;rounded=0;" parent="1" target="XePxqIcqoSYK1fd4uLqz-59" edge="1">
          <mxGeometry width="50" height="50" relative="1" as="geometry">
            <mxPoint x="760" y="540" as="sourcePoint" />
            <mxPoint x="890" y="440" as="targetPoint" />
            <Array as="points" />
          </mxGeometry>
        </mxCell>
        <mxCell id="XePxqIcqoSYK1fd4uLqz-70" value="(Add custody payment&lt;br&gt;to queue)" style="edgeLabel;html=1;align=center;verticalAlign=middle;resizable=0;points=[];fontColor=#67c4fd;" parent="XePxqIcqoSYK1fd4uLqz-69" vertex="1" connectable="0">
          <mxGeometry x="0.0485" relative="1" as="geometry">
            <mxPoint y="-2" as="offset" />
          </mxGeometry>
        </mxCell>
        <mxCell id="XePxqIcqoSYK1fd4uLqz-71" value="" style="endArrow=open;html=1;rounded=0;strokeColor=#9b1599;strokeWidth=2;endFill=0;" parent="1" edge="1">
          <mxGeometry width="50" height="50" relative="1" as="geometry">
            <mxPoint x="510" y="592" as="sourcePoint" />
            <mxPoint x="510" y="677" as="targetPoint" />
            <Array as="points">
              <mxPoint x="510" y="640" />
            </Array>
          </mxGeometry>
        </mxCell>
        <mxCell id="XePxqIcqoSYK1fd4uLqz-72" value="" style="endArrow=open;html=1;rounded=0;strokeWidth=2;endFill=0;" parent="1" edge="1">
          <mxGeometry width="50" height="50" relative="1" as="geometry">
            <mxPoint x="510" y="677" as="sourcePoint" />
            <mxPoint x="510" y="740" as="targetPoint" />
            <Array as="points">
              <mxPoint x="510" y="687" />
            </Array>
          </mxGeometry>
        </mxCell>
        <mxCell id="XePxqIcqoSYK1fd4uLqz-73" value="notify_onchain_funds_sent" style="edgeLabel;html=1;align=center;verticalAlign=middle;resizable=0;points=[];" parent="XePxqIcqoSYK1fd4uLqz-72" vertex="1" connectable="0">
          <mxGeometry x="-0.3488" y="-1" relative="1" as="geometry">
            <mxPoint x="16" y="-4" as="offset" />
          </mxGeometry>
        </mxCell>
        <mxCell id="XePxqIcqoSYK1fd4uLqz-74" value="" style="endArrow=open;html=1;rounded=1;entryX=0.35;entryY=0.986;entryDx=0;entryDy=0;entryPerimeter=0;strokeWidth=2;endFill=0;" parent="1" target="XePxqIcqoSYK1fd4uLqz-31" edge="1">
          <mxGeometry width="50" height="50" relative="1" as="geometry">
            <mxPoint x="390" y="645" as="sourcePoint" />
            <mxPoint x="440" y="605" as="targetPoint" />
            <Array as="points">
              <mxPoint x="420" y="645" />
              <mxPoint x="440" y="645" />
            </Array>
          </mxGeometry>
        </mxCell>
        <mxCell id="XePxqIcqoSYK1fd4uLqz-75" value="notify_refund_sent" style="edgeLabel;html=1;align=center;verticalAlign=middle;resizable=0;points=[];" parent="XePxqIcqoSYK1fd4uLqz-74" vertex="1" connectable="0">
          <mxGeometry x="0.3847" relative="1" as="geometry">
            <mxPoint as="offset" />
          </mxGeometry>
        </mxCell>
        <mxCell id="XePxqIcqoSYK1fd4uLqz-76" style="edgeStyle=orthogonalEdgeStyle;rounded=1;orthogonalLoop=1;jettySize=auto;html=1;exitX=0.25;exitY=1;exitDx=0;exitDy=0;curved=0;strokeWidth=2;" parent="1" source="XePxqIcqoSYK1fd4uLqz-78" edge="1">
          <mxGeometry relative="1" as="geometry">
            <mxPoint x="460" y="520" as="targetPoint" />
          </mxGeometry>
        </mxCell>
        <mxCell id="XePxqIcqoSYK1fd4uLqz-77" value="notify_offchain_funds_received" style="edgeLabel;html=1;align=center;verticalAlign=middle;resizable=0;points=[];" parent="XePxqIcqoSYK1fd4uLqz-76" vertex="1" connectable="0">
          <mxGeometry x="-0.3274" y="-1" relative="1" as="geometry">
            <mxPoint as="offset" />
          </mxGeometry>
        </mxCell>
        <mxCell id="XePxqIcqoSYK1fd4uLqz-78" value="" style="rounded=1;whiteSpace=wrap;html=1;fillColor=#fff2cc;strokeColor=none;" parent="1" vertex="1">
          <mxGeometry x="869" y="400" width="130" height="60" as="geometry" />
        </mxCell>
        <mxCell id="XePxqIcqoSYK1fd4uLqz-79" value="&lt;font face=&quot;Tahoma&quot;&gt;on_hold&lt;/font&gt;" style="rounded=1;whiteSpace=wrap;html=1;align=left;verticalAlign=top;strokeColor=none;fillColor=#f0a30a;fontColor=#000000;" parent="1" vertex="1">
          <mxGeometry x="875" y="406" width="100" height="30" as="geometry" />
        </mxCell>
        <mxCell id="XePxqIcqoSYK1fd4uLqz-80" style="edgeStyle=orthogonalEdgeStyle;rounded=1;orthogonalLoop=1;jettySize=auto;html=1;exitX=1;exitY=0.25;exitDx=0;exitDy=0;entryX=0.446;entryY=0;entryDx=0;entryDy=0;entryPerimeter=0;curved=0;strokeWidth=2;" parent="1" source="XePxqIcqoSYK1fd4uLqz-21" target="XePxqIcqoSYK1fd4uLqz-78" edge="1">
          <mxGeometry relative="1" as="geometry" />
        </mxCell>
        <mxCell id="XePxqIcqoSYK1fd4uLqz-81" value="&lt;font style=&quot;font-size: 11px;&quot;&gt;notify_transaction_on_hold&lt;/font&gt;" style="edgeLabel;html=1;align=center;verticalAlign=middle;resizable=0;points=[];" parent="XePxqIcqoSYK1fd4uLqz-80" vertex="1" connectable="0">
          <mxGeometry x="0.1901" y="4" relative="1" as="geometry">
            <mxPoint y="1" as="offset" />
          </mxGeometry>
        </mxCell>
      </root>
    </mxGraphModel>
  </diagram>
  <diagram name="Sep24 - withdrawal v.0.4" id="tQgnsNijEUhx3vvXC0Qd">
    <mxGraphModel dx="3982" dy="869" grid="1" gridSize="10" guides="1" tooltips="1" connect="1" arrows="1" fold="1" page="1" pageScale="1" pageWidth="850" pageHeight="1100" math="0" shadow="0">
      <root>
        <mxCell id="0" />
        <mxCell id="1" parent="0" />
        <mxCell id="19DFnFGgezubew46fDbJ-8" value="" style="rounded=0;whiteSpace=wrap;html=1;strokeColor=none;" parent="1" vertex="1">
          <mxGeometry x="-2312" y="70" width="1120.5" height="770" as="geometry" />
        </mxCell>
        <mxCell id="olQjKZX7w5ClR32a8ufF-7" value="" style="endArrow=open;html=1;rounded=1;exitX=0.5;exitY=1;exitDx=0;exitDy=0;entryX=0.5;entryY=0;entryDx=0;entryDy=0;strokeWidth=2;endFill=0;" parent="1" source="1VmnTqBAucP6j0lEsLy9-7" edge="1">
          <mxGeometry width="50" height="50" relative="1" as="geometry">
            <mxPoint x="-1794" y="429.1199999999999" as="sourcePoint" />
            <mxPoint x="-1794" y="530" as="targetPoint" />
          </mxGeometry>
        </mxCell>
        <mxCell id="8ilRtFF8TZkBPPpWjRlk-1" value="notify_onchain_funds_received" style="edgeLabel;html=1;align=center;verticalAlign=middle;resizable=0;points=[];" parent="olQjKZX7w5ClR32a8ufF-7" connectable="0" vertex="1">
          <mxGeometry x="-0.1542" y="3" relative="1" as="geometry">
            <mxPoint x="-2" y="-7" as="offset" />
          </mxGeometry>
        </mxCell>
        <mxCell id="olQjKZX7w5ClR32a8ufF-31" value="" style="endArrow=open;html=1;rounded=1;exitX=0.844;exitY=1.017;exitDx=0;exitDy=0;exitPerimeter=0;strokeWidth=2;endFill=0;" parent="1" source="uuhxsLCSQKmmBB7-Bimi-1" edge="1">
          <mxGeometry width="50" height="50" relative="1" as="geometry">
            <mxPoint x="-1734.1599999999999" y="570.44" as="sourcePoint" />
            <mxPoint x="-1734" y="745.88" as="targetPoint" />
          </mxGeometry>
        </mxCell>
        <mxCell id="olQjKZX7w5ClR32a8ufF-32" value="notify_offchain_funds_sent" style="edgeLabel;html=1;align=center;verticalAlign=middle;resizable=0;points=[];" parent="olQjKZX7w5ClR32a8ufF-31" connectable="0" vertex="1">
          <mxGeometry x="-0.5215" y="1" relative="1" as="geometry">
            <mxPoint x="13" y="91" as="offset" />
          </mxGeometry>
        </mxCell>
        <mxCell id="olQjKZX7w5ClR32a8ufF-33" value="" style="endArrow=open;html=1;exitX=0.178;exitY=0.983;exitDx=0;exitDy=0;exitPerimeter=0;entryX=0.75;entryY=0;entryDx=0;entryDy=0;strokeWidth=2;rounded=1;endFill=0;" parent="1" source="uuhxsLCSQKmmBB7-Bimi-1" edge="1">
          <mxGeometry width="50" height="50" relative="1" as="geometry">
            <mxPoint x="-1853.8400000000001" y="571.1199999999999" as="sourcePoint" />
            <mxPoint x="-1854" y="747.51" as="targetPoint" />
          </mxGeometry>
        </mxCell>
        <mxCell id="olQjKZX7w5ClR32a8ufF-34" value="notify_refund_sent" style="edgeLabel;html=1;align=center;verticalAlign=middle;resizable=0;points=[];" parent="olQjKZX7w5ClR32a8ufF-33" connectable="0" vertex="1">
          <mxGeometry x="-0.5594" relative="1" as="geometry">
            <mxPoint x="4" y="88" as="offset" />
          </mxGeometry>
        </mxCell>
        <mxCell id="olQjKZX7w5ClR32a8ufF-35" value="SEP24 withdrawal flow" style="text;html=1;strokeColor=none;fillColor=none;align=center;verticalAlign=middle;whiteSpace=wrap;rounded=0;fontSize=17;fontStyle=1" parent="1" vertex="1">
          <mxGeometry x="-1914" y="70" width="240" height="30" as="geometry" />
        </mxCell>
        <mxCell id="wfEdxK96i-KRs6hGnqwD-1" value="" style="endArrow=open;html=1;rounded=1;exitX=0.15;exitY=-0.054;exitDx=0;exitDy=0;exitPerimeter=0;entryX=0.877;entryY=-0.022;entryDx=0;entryDy=0;entryPerimeter=0;jumpStyle=arc;strokeWidth=2;endFill=0;" parent="1" edge="1">
          <mxGeometry width="50" height="50" relative="1" as="geometry">
            <mxPoint x="-1849.9999999999998" y="530.9999999999999" as="sourcePoint" />
            <mxPoint x="-1733.6799999999998" y="530.1199999999999" as="targetPoint" />
            <Array as="points">
              <mxPoint x="-1850" y="493" />
              <mxPoint x="-1734" y="493" />
              <mxPoint x="-1734" y="511" />
            </Array>
          </mxGeometry>
        </mxCell>
        <mxCell id="wfEdxK96i-KRs6hGnqwD-2" value="notify_amounts_updated" style="edgeLabel;html=1;align=center;verticalAlign=middle;resizable=0;points=[];" parent="wfEdxK96i-KRs6hGnqwD-1" connectable="0" vertex="1">
          <mxGeometry x="-0.2381" y="1" relative="1" as="geometry">
            <mxPoint x="95" y="17" as="offset" />
          </mxGeometry>
        </mxCell>
        <mxCell id="lWr0Hpx_SfrrkMofASAg-2" value="" style="endArrow=open;html=1;rounded=1;exitX=1;exitY=0.25;exitDx=0;exitDy=0;entryX=0.5;entryY=0;entryDx=0;entryDy=0;strokeWidth=2;endFill=0;" parent="1" edge="1">
          <mxGeometry width="50" height="50" relative="1" as="geometry">
            <mxPoint x="-1740" y="557" as="sourcePoint" />
            <mxPoint x="-1359.5" y="616.8800000000001" as="targetPoint" />
            <Array as="points">
              <mxPoint x="-1360" y="557" />
            </Array>
          </mxGeometry>
        </mxCell>
        <mxCell id="lWr0Hpx_SfrrkMofASAg-3" value="notify_offchain_funds_pending" style="edgeLabel;html=1;align=center;verticalAlign=middle;resizable=0;points=[];" parent="lWr0Hpx_SfrrkMofASAg-2" connectable="0" vertex="1">
          <mxGeometry x="-0.1591" y="-2" relative="1" as="geometry">
            <mxPoint x="97" y="-8" as="offset" />
          </mxGeometry>
        </mxCell>
        <mxCell id="1VmnTqBAucP6j0lEsLy9-1" value="" style="rounded=1;whiteSpace=wrap;html=1;fillColor=#d5e8d4;strokeColor=none;" parent="1" vertex="1">
          <mxGeometry x="-1764" y="747.51" width="180" height="60" as="geometry" />
        </mxCell>
        <mxCell id="1VmnTqBAucP6j0lEsLy9-2" value="completed" style="rounded=1;whiteSpace=wrap;html=1;verticalAlign=top;align=left;fillColor=#6d8764;fontFamily=Tahoma;strokeColor=none;fontColor=#ffffff;" parent="1" vertex="1">
          <mxGeometry x="-1754" y="752.51" width="105" height="30" as="geometry" />
        </mxCell>
        <mxCell id="1VmnTqBAucP6j0lEsLy9-3" value="" style="rounded=1;whiteSpace=wrap;html=1;fillColor=#d5e8d4;strokeColor=none;" parent="1" vertex="1">
          <mxGeometry x="-1965" y="748" width="180" height="60" as="geometry" />
        </mxCell>
        <mxCell id="1VmnTqBAucP6j0lEsLy9-4" value="refunded" style="rounded=1;whiteSpace=wrap;html=1;verticalAlign=top;align=left;fillColor=#6d8764;fontFamily=Tahoma;strokeColor=none;fontColor=#ffffff;" parent="1" vertex="1">
          <mxGeometry x="-1955" y="752.51" width="105" height="30" as="geometry" />
        </mxCell>
        <mxCell id="uuhxsLCSQKmmBB7-Bimi-4" style="edgeStyle=orthogonalEdgeStyle;rounded=1;orthogonalLoop=1;jettySize=auto;html=1;exitX=0.5;exitY=1;exitDx=0;exitDy=0;entryX=0.5;entryY=0;entryDx=0;entryDy=0;strokeWidth=2;endArrow=open;endFill=0;" parent="1" source="1VmnTqBAucP6j0lEsLy9-5" target="1VmnTqBAucP6j0lEsLy9-7" edge="1">
          <mxGeometry relative="1" as="geometry" />
        </mxCell>
        <mxCell id="uuhxsLCSQKmmBB7-Bimi-5" value="request_onchain_funds&lt;br style=&quot;border-color: var(--border-color);&quot;&gt;(&lt;font style=&quot;border-color: var(--border-color);&quot; color=&quot;#0066cc&quot;&gt;Create custody transaction*&lt;br style=&quot;border-color: var(--border-color);&quot;&gt;&lt;/font&gt;&lt;font style=&quot;border-color: var(--border-color);&quot; color=&quot;#0066cc&quot;&gt;Generate custody address and memo*&lt;/font&gt;)" style="edgeLabel;html=1;align=center;verticalAlign=middle;resizable=0;points=[];" parent="uuhxsLCSQKmmBB7-Bimi-4" vertex="1" connectable="0">
          <mxGeometry x="0.5099" y="1" relative="1" as="geometry">
            <mxPoint as="offset" />
          </mxGeometry>
        </mxCell>
        <mxCell id="i1Tsm2N9LzVnO38OjRS3-1" style="edgeStyle=orthogonalEdgeStyle;rounded=1;orthogonalLoop=1;jettySize=auto;html=1;exitX=1;exitY=0.5;exitDx=0;exitDy=0;strokeWidth=2;endArrow=open;endFill=0;" parent="1" source="1VmnTqBAucP6j0lEsLy9-5" target="N_XBzseesMyBwSn1S0o6-1" edge="1">
          <mxGeometry relative="1" as="geometry" />
        </mxCell>
        <mxCell id="i1Tsm2N9LzVnO38OjRS3-2" value="notify_interactive_flow_completed" style="edgeLabel;html=1;align=center;verticalAlign=middle;resizable=0;points=[];" parent="i1Tsm2N9LzVnO38OjRS3-1" vertex="1" connectable="0">
          <mxGeometry x="0.7931" y="-1" relative="1" as="geometry">
            <mxPoint as="offset" />
          </mxGeometry>
        </mxCell>
        <mxCell id="1VmnTqBAucP6j0lEsLy9-5" value="" style="rounded=1;whiteSpace=wrap;html=1;fillColor=#d5e8d4;strokeColor=none;" parent="1" vertex="1">
          <mxGeometry x="-1885" y="135" width="180" height="60" as="geometry" />
        </mxCell>
        <mxCell id="1VmnTqBAucP6j0lEsLy9-6" value="incomplete" style="rounded=1;whiteSpace=wrap;html=1;verticalAlign=top;align=left;fillColor=#6d8764;fontFamily=Tahoma;strokeColor=none;fontColor=#ffffff;" parent="1" vertex="1">
          <mxGeometry x="-1880" y="145" width="105" height="30" as="geometry" />
        </mxCell>
        <mxCell id="BCe4yO_wYxQrQEUp4EnU-9" style="edgeStyle=orthogonalEdgeStyle;rounded=1;orthogonalLoop=1;jettySize=auto;html=1;exitX=1;exitY=0.5;exitDx=0;exitDy=0;entryX=0;entryY=0.75;entryDx=0;entryDy=0;strokeWidth=2;curved=0;" edge="1" parent="1" source="1VmnTqBAucP6j0lEsLy9-7" target="BCe4yO_wYxQrQEUp4EnU-3">
          <mxGeometry relative="1" as="geometry" />
        </mxCell>
        <mxCell id="1VmnTqBAucP6j0lEsLy9-7" value="" style="rounded=1;whiteSpace=wrap;html=1;fillColor=#d5e8d4;strokeColor=none;" parent="1" vertex="1">
          <mxGeometry x="-1885" y="379.12" width="180" height="60" as="geometry" />
        </mxCell>
        <mxCell id="1VmnTqBAucP6j0lEsLy9-8" value="pending_user_transfer_start" style="rounded=1;whiteSpace=wrap;html=1;verticalAlign=top;align=left;fillColor=#6d8764;fontFamily=Tahoma;strokeColor=none;fontColor=#ffffff;" parent="1" vertex="1">
          <mxGeometry x="-1880" y="384.12" width="160" height="30.88" as="geometry" />
        </mxCell>
        <mxCell id="uuhxsLCSQKmmBB7-Bimi-6" style="edgeStyle=orthogonalEdgeStyle;rounded=1;orthogonalLoop=1;jettySize=auto;html=1;exitX=0.5;exitY=1;exitDx=0;exitDy=0;strokeWidth=2;endArrow=open;endFill=0;" parent="1" source="N_XBzseesMyBwSn1S0o6-1" edge="1">
          <mxGeometry relative="1" as="geometry">
            <mxPoint x="-1794" y="260" as="targetPoint" />
          </mxGeometry>
        </mxCell>
        <mxCell id="N_XBzseesMyBwSn1S0o6-1" value="" style="rounded=1;whiteSpace=wrap;html=1;fillColor=#fff2cc;strokeColor=none;" parent="1" vertex="1">
          <mxGeometry x="-1564" y="220" width="130" height="60" as="geometry" />
        </mxCell>
        <mxCell id="N_XBzseesMyBwSn1S0o6-2" value="&lt;font face=&quot;Tahoma&quot;&gt;pending_anchor&lt;/font&gt;" style="rounded=1;whiteSpace=wrap;html=1;align=left;verticalAlign=top;strokeColor=none;fillColor=#f0a30a;fontColor=#000000;" parent="1" vertex="1">
          <mxGeometry x="-1554" y="230" width="94" height="30" as="geometry" />
        </mxCell>
        <mxCell id="myNQpcoXiVufHVnh7pvk-1" value="" style="rounded=1;whiteSpace=wrap;html=1;fillColor=#fff2cc;strokeColor=none;" parent="1" vertex="1">
          <mxGeometry x="-2259" y="652.88" width="130" height="60" as="geometry" />
        </mxCell>
        <mxCell id="myNQpcoXiVufHVnh7pvk-2" value="&lt;font face=&quot;Tahoma&quot;&gt;pending_stellar&lt;/font&gt;" style="rounded=1;whiteSpace=wrap;html=1;align=left;verticalAlign=top;strokeColor=none;fillColor=#f0a30a;fontColor=#000000;" parent="1" vertex="1">
          <mxGeometry x="-2259" y="660" width="100" height="30" as="geometry" />
        </mxCell>
        <mxCell id="xSZGYQ3GUr2Xv4BTAuLV-17" style="edgeStyle=orthogonalEdgeStyle;rounded=1;orthogonalLoop=1;jettySize=auto;html=1;exitX=0.5;exitY=1;exitDx=0;exitDy=0;strokeWidth=2;endArrow=open;endFill=0;" parent="1" edge="1">
          <mxGeometry relative="1" as="geometry">
            <mxPoint x="-1562" y="700" as="targetPoint" />
            <mxPoint x="-1361" y="676.8800000000001" as="sourcePoint" />
            <Array as="points">
              <mxPoint x="-1361" y="700" />
            </Array>
          </mxGeometry>
        </mxCell>
        <mxCell id="1E8NPX2utK_tuPmvM1R9-1" value="" style="rounded=1;whiteSpace=wrap;html=1;fillColor=#fff2cc;strokeColor=none;" parent="1" vertex="1">
          <mxGeometry x="-1424" y="616.88" width="130" height="60" as="geometry" />
        </mxCell>
        <mxCell id="1E8NPX2utK_tuPmvM1R9-2" value="&lt;font face=&quot;Tahoma&quot;&gt;pending_external&lt;/font&gt;" style="rounded=1;whiteSpace=wrap;html=1;align=left;verticalAlign=top;strokeColor=none;fillColor=#f0a30a;fontColor=#000000;" parent="1" vertex="1">
          <mxGeometry x="-1416" y="622.88" width="100" height="30" as="geometry" />
        </mxCell>
        <mxCell id="xSZGYQ3GUr2Xv4BTAuLV-16" style="edgeStyle=orthogonalEdgeStyle;rounded=1;orthogonalLoop=1;jettySize=auto;html=1;endArrow=open;endFill=0;strokeWidth=2;" parent="1" edge="1">
          <mxGeometry relative="1" as="geometry">
            <mxPoint x="-1735" y="700" as="targetPoint" />
            <mxPoint x="-1560" y="677" as="sourcePoint" />
            <Array as="points">
              <mxPoint x="-1560" y="677" />
              <mxPoint x="-1560" y="700" />
            </Array>
          </mxGeometry>
        </mxCell>
        <mxCell id="T8IIk7023ObEj98OedEK-5" style="edgeStyle=orthogonalEdgeStyle;rounded=1;orthogonalLoop=1;jettySize=auto;html=1;exitX=0;exitY=0.5;exitDx=0;exitDy=0;entryX=1;entryY=0.5;entryDx=0;entryDy=0;curved=0;strokeWidth=2;" edge="1" parent="1" source="xENiUxB1cImVQo_JTPu--1" target="T8IIk7023ObEj98OedEK-3">
          <mxGeometry relative="1" as="geometry" />
        </mxCell>
        <mxCell id="T8IIk7023ObEj98OedEK-8" value="notify_refund_pending" style="edgeLabel;html=1;align=center;verticalAlign=middle;resizable=0;points=[];" vertex="1" connectable="0" parent="T8IIk7023ObEj98OedEK-5">
          <mxGeometry x="-0.1228" y="-1" relative="1" as="geometry">
            <mxPoint x="2" y="-36" as="offset" />
          </mxGeometry>
        </mxCell>
        <mxCell id="xENiUxB1cImVQo_JTPu--1" value="" style="rounded=1;whiteSpace=wrap;html=1;fillColor=#fff2cc;strokeColor=none;" parent="1" vertex="1">
          <mxGeometry x="-1668" y="616.88" width="210" height="60" as="geometry" />
        </mxCell>
        <mxCell id="xENiUxB1cImVQo_JTPu--2" value="pending_user_transfer_complete" style="rounded=1;whiteSpace=wrap;html=1;align=left;verticalAlign=top;strokeColor=none;fillColor=#f0a30a;fontColor=#000000;" parent="1" vertex="1">
          <mxGeometry x="-1659" y="622.88" width="190" height="37.12" as="geometry" />
        </mxCell>
        <mxCell id="xSZGYQ3GUr2Xv4BTAuLV-3" style="edgeStyle=orthogonalEdgeStyle;rounded=1;orthogonalLoop=1;jettySize=auto;html=1;exitX=0.5;exitY=1;exitDx=0;exitDy=0;entryX=0.5;entryY=0;entryDx=0;entryDy=0;strokeWidth=2;endArrow=open;endFill=0;" parent="1" source="Jpj7JL_jpf0lYQ3cLoy5-1" target="xSZGYQ3GUr2Xv4BTAuLV-1" edge="1">
          <mxGeometry relative="1" as="geometry" />
        </mxCell>
        <mxCell id="xSZGYQ3GUr2Xv4BTAuLV-4" value="notify_transaction_error&lt;br style=&quot;border-color: var(--border-color);&quot;&gt;notify_transaction_expired" style="edgeLabel;html=1;align=center;verticalAlign=middle;resizable=0;points=[];" parent="xSZGYQ3GUr2Xv4BTAuLV-3" vertex="1" connectable="0">
          <mxGeometry x="0.0099" y="-1" relative="1" as="geometry">
            <mxPoint as="offset" />
          </mxGeometry>
        </mxCell>
        <mxCell id="Jpj7JL_jpf0lYQ3cLoy5-1" value="&lt;font style=&quot;&quot; face=&quot;Tahoma&quot;&gt;Any status other than completed or refunded&lt;/font&gt;" style="rounded=1;whiteSpace=wrap;html=1;fillColor=#f5f5f5;align=center;verticalAlign=top;fontColor=#333333;strokeColor=none;" parent="1" vertex="1">
          <mxGeometry x="-2144" y="280" width="130" height="70" as="geometry" />
        </mxCell>
        <mxCell id="xSZGYQ3GUr2Xv4BTAuLV-7" style="edgeStyle=orthogonalEdgeStyle;rounded=1;orthogonalLoop=1;jettySize=auto;html=1;exitX=0;exitY=0.5;exitDx=0;exitDy=0;entryX=0.5;entryY=0;entryDx=0;entryDy=0;strokeWidth=2;endArrow=open;endFill=0;" parent="1" source="uuhxsLCSQKmmBB7-Bimi-1" target="myNQpcoXiVufHVnh7pvk-1" edge="1">
          <mxGeometry relative="1" as="geometry" />
        </mxCell>
        <mxCell id="xSZGYQ3GUr2Xv4BTAuLV-8" value="do_stellar_refund&lt;br style=&quot;border-color: var(--border-color);&quot;&gt;(&lt;font style=&quot;border-color: var(--border-color);&quot; color=&quot;#0066cc&quot;&gt;Do&amp;nbsp;custody payment&lt;/font&gt;)" style="edgeLabel;html=1;align=center;verticalAlign=middle;resizable=0;points=[];" parent="xSZGYQ3GUr2Xv4BTAuLV-7" vertex="1" connectable="0">
          <mxGeometry x="0.8113" relative="1" as="geometry">
            <mxPoint y="-13" as="offset" />
          </mxGeometry>
        </mxCell>
        <mxCell id="xSZGYQ3GUr2Xv4BTAuLV-12" style="edgeStyle=orthogonalEdgeStyle;rounded=1;orthogonalLoop=1;jettySize=auto;html=1;exitX=1;exitY=0.75;exitDx=0;exitDy=0;entryX=0.5;entryY=0;entryDx=0;entryDy=0;strokeWidth=2;endArrow=open;endFill=0;" parent="1" source="uuhxsLCSQKmmBB7-Bimi-1" target="xENiUxB1cImVQo_JTPu--1" edge="1">
          <mxGeometry relative="1" as="geometry" />
        </mxCell>
        <mxCell id="xSZGYQ3GUr2Xv4BTAuLV-13" value="notify_offchain_funds_available" style="edgeLabel;html=1;align=center;verticalAlign=middle;resizable=0;points=[];" parent="xSZGYQ3GUr2Xv4BTAuLV-12" vertex="1" connectable="0">
          <mxGeometry x="0.7403" relative="1" as="geometry">
            <mxPoint as="offset" />
          </mxGeometry>
        </mxCell>
        <mxCell id="BCe4yO_wYxQrQEUp4EnU-11" style="edgeStyle=orthogonalEdgeStyle;rounded=1;orthogonalLoop=1;jettySize=auto;html=1;exitX=1;exitY=0.25;exitDx=0;exitDy=0;entryX=0;entryY=0.75;entryDx=0;entryDy=0;strokeWidth=2;curved=0;" edge="1" parent="1" source="uuhxsLCSQKmmBB7-Bimi-1" target="BCe4yO_wYxQrQEUp4EnU-3">
          <mxGeometry relative="1" as="geometry">
            <mxPoint x="-1570" y="430" as="targetPoint" />
          </mxGeometry>
        </mxCell>
        <mxCell id="BCe4yO_wYxQrQEUp4EnU-12" value="notify_transaction_on_hold" style="edgeLabel;html=1;align=center;verticalAlign=middle;resizable=0;points=[];" vertex="1" connectable="0" parent="BCe4yO_wYxQrQEUp4EnU-11">
          <mxGeometry x="0.0763" y="-2" relative="1" as="geometry">
            <mxPoint y="-33" as="offset" />
          </mxGeometry>
        </mxCell>
        <mxCell id="uuhxsLCSQKmmBB7-Bimi-1" value="" style="rounded=1;whiteSpace=wrap;html=1;fillColor=#d5e8d4;strokeColor=#82b366;" parent="1" vertex="1">
          <mxGeometry x="-1886" y="531" width="180" height="60" as="geometry" />
        </mxCell>
        <mxCell id="uuhxsLCSQKmmBB7-Bimi-2" value="pending_anchor" style="rounded=1;whiteSpace=wrap;html=1;verticalAlign=top;align=left;fillColor=#6d8764;fontFamily=Tahoma;strokeColor=none;fontColor=#ffffff;" parent="1" vertex="1">
          <mxGeometry x="-1881" y="536" width="100" height="30.88" as="geometry" />
        </mxCell>
        <mxCell id="xSZGYQ3GUr2Xv4BTAuLV-5" style="edgeStyle=orthogonalEdgeStyle;rounded=1;orthogonalLoop=1;jettySize=auto;html=1;exitX=0.5;exitY=1;exitDx=0;exitDy=0;entryX=0;entryY=0.25;entryDx=0;entryDy=0;strokeWidth=2;endArrow=open;endFill=0;" parent="1" source="xSZGYQ3GUr2Xv4BTAuLV-1" target="uuhxsLCSQKmmBB7-Bimi-1" edge="1">
          <mxGeometry relative="1" as="geometry" />
        </mxCell>
        <mxCell id="xSZGYQ3GUr2Xv4BTAuLV-6" value="notify_transaction_recovery" style="edgeLabel;html=1;align=center;verticalAlign=middle;resizable=0;points=[];" parent="xSZGYQ3GUr2Xv4BTAuLV-5" vertex="1" connectable="0">
          <mxGeometry x="-0.7592" y="-1" relative="1" as="geometry">
            <mxPoint as="offset" />
          </mxGeometry>
        </mxCell>
        <mxCell id="xSZGYQ3GUr2Xv4BTAuLV-1" value="" style="rounded=1;whiteSpace=wrap;html=1;fillColor=#f8cecc;strokeColor=none;" parent="1" vertex="1">
          <mxGeometry x="-2144" y="439.12" width="130" height="60" as="geometry" />
        </mxCell>
        <mxCell id="xSZGYQ3GUr2Xv4BTAuLV-2" value="&lt;font face=&quot;Tahoma&quot;&gt;error/expired&lt;/font&gt;" style="rounded=1;whiteSpace=wrap;html=1;align=left;verticalAlign=top;strokeColor=none;fillColor=#e51400;fontColor=#ffffff;" parent="1" vertex="1">
          <mxGeometry x="-2136" y="445.12" width="80" height="25" as="geometry" />
        </mxCell>
        <mxCell id="19DFnFGgezubew46fDbJ-1" value="" style="group" parent="1" vertex="1" connectable="0">
          <mxGeometry x="-2358" y="135" width="508" height="163" as="geometry" />
        </mxCell>
        <mxCell id="19DFnFGgezubew46fDbJ-2" value="" style="rounded=1;whiteSpace=wrap;html=1;fillColor=#d5e8d4;strokeColor=none;" parent="19DFnFGgezubew46fDbJ-1" vertex="1">
          <mxGeometry x="74" y="5" width="50" height="20" as="geometry" />
        </mxCell>
        <mxCell id="19DFnFGgezubew46fDbJ-3" value="shortest e2e status flow" style="text;strokeColor=none;align=center;fillColor=none;html=1;verticalAlign=middle;whiteSpace=wrap;rounded=0;" parent="19DFnFGgezubew46fDbJ-1" vertex="1">
          <mxGeometry x="124" width="146" height="30" as="geometry" />
        </mxCell>
        <mxCell id="19DFnFGgezubew46fDbJ-4" value="" style="rounded=1;whiteSpace=wrap;html=1;fillColor=#fff2cc;strokeColor=none;" parent="19DFnFGgezubew46fDbJ-1" vertex="1">
          <mxGeometry x="74" y="30" width="50" height="20" as="geometry" />
        </mxCell>
        <mxCell id="19DFnFGgezubew46fDbJ-5" value="optional status, available for business" style="text;strokeColor=none;align=center;fillColor=none;html=1;verticalAlign=middle;whiteSpace=wrap;rounded=0;" parent="19DFnFGgezubew46fDbJ-1" vertex="1">
          <mxGeometry x="122" y="25" width="220" height="30" as="geometry" />
        </mxCell>
        <mxCell id="19DFnFGgezubew46fDbJ-6" value="(&lt;font style=&quot;border-color: var(--border-color); text-align: left;&quot; color=&quot;#66b2ff&quot;&gt;function&lt;/font&gt;&lt;span style=&quot;text-align: left;&quot;&gt;)&lt;/span&gt;" style="rounded=1;whiteSpace=wrap;html=1;fillColor=none;strokeColor=none;" parent="19DFnFGgezubew46fDbJ-1" vertex="1">
          <mxGeometry x="74" y="55" width="54" height="20" as="geometry" />
        </mxCell>
        <mxCell id="19DFnFGgezubew46fDbJ-7" value="&lt;font style=&quot;border-color: var(--border-color); text-align: left;&quot;&gt;a side effect that will be triggered by an action&lt;/font&gt;" style="text;strokeColor=none;align=left;fillColor=none;html=1;verticalAlign=middle;whiteSpace=wrap;rounded=0;labelPosition=right;verticalLabelPosition=middle;" parent="19DFnFGgezubew46fDbJ-1" vertex="1">
          <mxGeometry x="-170" y="50" width="300" height="30" as="geometry" />
        </mxCell>
        <mxCell id="T8IIk7023ObEj98OedEK-1" style="edgeStyle=orthogonalEdgeStyle;rounded=1;orthogonalLoop=1;jettySize=auto;html=1;exitX=1;exitY=0.5;exitDx=0;exitDy=0;curved=0;strokeWidth=2;" edge="1" parent="1" source="myNQpcoXiVufHVnh7pvk-1">
          <mxGeometry relative="1" as="geometry">
            <mxPoint x="-1855" y="683" as="targetPoint" />
          </mxGeometry>
        </mxCell>
        <mxCell id="T8IIk7023ObEj98OedEK-2" value="(&lt;font style=&quot;border-color: var(--border-color);&quot; color=&quot;#0066cc&quot;&gt;Update&lt;/font&gt;&lt;font style=&quot;border-color: var(--border-color); color: rgb(0, 153, 227);&quot;&gt;&amp;nbsp;&lt;/font&gt;&lt;font style=&quot;border-color: var(--border-color);&quot; color=&quot;#0066cc&quot;&gt;custody payment&lt;/font&gt;)" style="edgeLabel;html=1;align=center;verticalAlign=middle;resizable=0;points=[];" vertex="1" connectable="0" parent="T8IIk7023ObEj98OedEK-1">
          <mxGeometry x="-0.5449" y="-3" relative="1" as="geometry">
            <mxPoint x="11" y="-5" as="offset" />
          </mxGeometry>
        </mxCell>
        <mxCell id="T8IIk7023ObEj98OedEK-9" style="edgeStyle=orthogonalEdgeStyle;rounded=0;orthogonalLoop=1;jettySize=auto;html=1;exitX=1;exitY=0.75;exitDx=0;exitDy=0;strokeWidth=2;" edge="1" parent="1" source="T8IIk7023ObEj98OedEK-3">
          <mxGeometry relative="1" as="geometry">
            <mxPoint x="-1850" y="638" as="targetPoint" />
          </mxGeometry>
        </mxCell>
        <mxCell id="T8IIk7023ObEj98OedEK-3" value="" style="rounded=1;whiteSpace=wrap;html=1;fillColor=#fff2cc;strokeColor=none;" vertex="1" parent="1">
          <mxGeometry x="-2091" y="593.88" width="141" height="59" as="geometry" />
        </mxCell>
        <mxCell id="T8IIk7023ObEj98OedEK-4" value="pending_anchor" style="rounded=1;whiteSpace=wrap;html=1;align=left;verticalAlign=top;strokeColor=none;fillColor=#f0a30a;fontColor=#000000;" vertex="1" parent="1">
          <mxGeometry x="-2082" y="593.88" width="102" height="33" as="geometry" />
        </mxCell>
        <mxCell id="BCe4yO_wYxQrQEUp4EnU-5" style="edgeStyle=orthogonalEdgeStyle;rounded=1;orthogonalLoop=1;jettySize=auto;html=1;exitX=0.25;exitY=1;exitDx=0;exitDy=0;entryX=0.5;entryY=0;entryDx=0;entryDy=0;curved=0;strokeWidth=2;" edge="1" parent="1" source="BCe4yO_wYxQrQEUp4EnU-3" target="xENiUxB1cImVQo_JTPu--1">
          <mxGeometry relative="1" as="geometry">
            <mxPoint x="-1560" y="610" as="targetPoint" />
            <Array as="points">
              <mxPoint x="-1529" y="460" />
              <mxPoint x="-1530" y="530" />
              <mxPoint x="-1563" y="530" />
            </Array>
          </mxGeometry>
        </mxCell>
        <mxCell id="BCe4yO_wYxQrQEUp4EnU-3" value="" style="rounded=1;whiteSpace=wrap;html=1;fillColor=#fff2cc;strokeColor=none;" vertex="1" parent="1">
          <mxGeometry x="-1560" y="384.68" width="122" height="60.44" as="geometry" />
        </mxCell>
        <mxCell id="BCe4yO_wYxQrQEUp4EnU-4" value="&lt;div&gt;&lt;font face=&quot;Tahoma&quot;&gt;on_hold&lt;/font&gt;&lt;/div&gt;" style="rounded=1;whiteSpace=wrap;html=1;align=left;verticalAlign=top;strokeColor=none;fillColor=#f0a30a;fontColor=#000000;" vertex="1" parent="1">
          <mxGeometry x="-1554" y="391.90000000000003" width="63" height="34.44" as="geometry" />
        </mxCell>
      </root>
    </mxGraphModel>
  </diagram>
  <diagram name="Sep31 v0.2" id="nwdIKJgcQK39hGkSGdOi">
    <mxGraphModel dx="2059" dy="1080" grid="1" gridSize="10" guides="1" tooltips="1" connect="1" arrows="1" fold="1" page="1" pageScale="1" pageWidth="850" pageHeight="1100" math="0" shadow="0">
      <root>
        <mxCell id="0" />
        <mxCell id="1" parent="0" />
        <mxCell id="67SbY_f3dpDVczb7oRwc-1" value="" style="rounded=0;whiteSpace=wrap;html=1;strokeWidth=0;" parent="1" vertex="1">
          <mxGeometry x="132.5" y="180" width="1200" height="840" as="geometry" />
        </mxCell>
        <mxCell id="kk59w1MAhV7eQLREM1ms-1" value="" style="group" parent="1" vertex="1" connectable="0">
          <mxGeometry y="444.5" width="508" height="163" as="geometry" />
        </mxCell>
        <mxCell id="kk59w1MAhV7eQLREM1ms-2" value="" style="rounded=1;whiteSpace=wrap;html=1;fillColor=#d5e8d4;strokeColor=none;" parent="kk59w1MAhV7eQLREM1ms-1" vertex="1">
          <mxGeometry x="240" y="5" width="50" height="20" as="geometry" />
        </mxCell>
        <mxCell id="kk59w1MAhV7eQLREM1ms-3" value="shortest e2e status flow" style="text;strokeColor=none;align=center;fillColor=none;html=1;verticalAlign=middle;whiteSpace=wrap;rounded=0;" parent="kk59w1MAhV7eQLREM1ms-1" vertex="1">
          <mxGeometry x="290" width="140" height="30" as="geometry" />
        </mxCell>
        <mxCell id="kk59w1MAhV7eQLREM1ms-4" value="" style="rounded=1;whiteSpace=wrap;html=1;fillColor=#fff2cc;strokeColor=none;" parent="kk59w1MAhV7eQLREM1ms-1" vertex="1">
          <mxGeometry x="240" y="30" width="50" height="20" as="geometry" />
        </mxCell>
        <mxCell id="kk59w1MAhV7eQLREM1ms-5" value="optional status, available for business" style="text;strokeColor=none;align=center;fillColor=none;html=1;verticalAlign=middle;whiteSpace=wrap;rounded=0;" parent="kk59w1MAhV7eQLREM1ms-1" vertex="1">
          <mxGeometry x="288" y="25" width="220" height="30" as="geometry" />
        </mxCell>
        <mxCell id="kk59w1MAhV7eQLREM1ms-6" value="(&lt;font style=&quot;border-color: var(--border-color); text-align: left;&quot; color=&quot;#66b2ff&quot;&gt;function&lt;/font&gt;&lt;span style=&quot;text-align: left;&quot;&gt;)&lt;/span&gt;" style="rounded=1;whiteSpace=wrap;html=1;fillColor=none;strokeColor=none;" parent="kk59w1MAhV7eQLREM1ms-1" vertex="1">
          <mxGeometry x="240" y="55" width="54" height="20" as="geometry" />
        </mxCell>
        <mxCell id="kk59w1MAhV7eQLREM1ms-7" value="&lt;font style=&quot;border-color: var(--border-color); text-align: left;&quot;&gt;a side effect that will be triggered by an action&lt;br style=&quot;border-color: var(--border-color);&quot;&gt;&lt;/font&gt;if its Anchor is in custody mode" style="text;strokeColor=none;align=left;fillColor=none;html=1;verticalAlign=middle;whiteSpace=wrap;rounded=0;labelPosition=right;verticalLabelPosition=middle;" parent="kk59w1MAhV7eQLREM1ms-1" vertex="1">
          <mxGeometry y="55" width="300" height="30" as="geometry" />
        </mxCell>
        <mxCell id="mxeJzW8ZGcNlbu38qCdp-11" value="" style="endArrow=open;html=1;rounded=1;exitX=0.5;exitY=1;exitDx=0;exitDy=0;entryX=0.467;entryY=0;entryDx=0;entryDy=0;entryPerimeter=0;endFill=0;strokeWidth=2;" parent="1" target="Kf9qd6CPrOdVnlglGHAT-5" edge="1">
          <mxGeometry width="50" height="50" relative="1" as="geometry">
            <mxPoint x="759.5" y="565" as="sourcePoint" />
            <mxPoint x="757.98" y="722.01" as="targetPoint" />
            <Array as="points">
              <mxPoint x="759" y="680" />
            </Array>
          </mxGeometry>
        </mxCell>
        <mxCell id="mxeJzW8ZGcNlbu38qCdp-12" value="notify_onchain_funds_received" style="edgeLabel;html=1;align=center;verticalAlign=middle;resizable=0;points=[];" parent="mxeJzW8ZGcNlbu38qCdp-11" connectable="0" vertex="1">
          <mxGeometry x="-0.55" y="-1" relative="1" as="geometry">
            <mxPoint x="2" y="1" as="offset" />
          </mxGeometry>
        </mxCell>
        <mxCell id="mxeJzW8ZGcNlbu38qCdp-13" value="SEP31 Status Transition Diagram" style="text;html=1;strokeColor=none;fillColor=none;align=center;verticalAlign=middle;whiteSpace=wrap;rounded=0;fontSize=17;fontStyle=1" parent="1" vertex="1">
          <mxGeometry x="596.25" y="210" width="272.5" height="30" as="geometry" />
        </mxCell>
        <mxCell id="mxeJzW8ZGcNlbu38qCdp-19" value="&lt;b&gt;Prior to pending_sender status, the receiver business has to communicate &lt;br&gt;with the sender business and provide all necessary data on sep31 transaction creation&amp;nbsp;&lt;/b&gt;" style="text;html=1;align=center;verticalAlign=middle;resizable=0;points=[];autosize=1;strokeColor=none;fillColor=none;" parent="1" vertex="1">
          <mxGeometry x="472.5" y="250" width="520" height="40" as="geometry" />
        </mxCell>
        <mxCell id="mxeJzW8ZGcNlbu38qCdp-20" value="" style="endArrow=open;html=1;rounded=1;strokeWidth=2;endFill=0;entryX=0.75;entryY=0;entryDx=0;entryDy=0;exitX=0.015;exitY=0.417;exitDx=0;exitDy=0;exitPerimeter=0;" parent="1" source="avnREUv3o3WgOM-XI5gU-1" target="Kf9qd6CPrOdVnlglGHAT-5" edge="1">
          <mxGeometry width="50" height="50" relative="1" as="geometry">
            <mxPoint x="1009" y="680" as="sourcePoint" />
            <mxPoint x="810" y="710" as="targetPoint" />
            <Array as="points">
              <mxPoint x="810" y="680" />
            </Array>
          </mxGeometry>
        </mxCell>
        <mxCell id="mxeJzW8ZGcNlbu38qCdp-21" value="notify_transaction_recovery" style="edgeLabel;html=1;align=center;verticalAlign=middle;resizable=0;points=[];" parent="mxeJzW8ZGcNlbu38qCdp-20" connectable="0" vertex="1">
          <mxGeometry x="-0.1381" y="2" relative="1" as="geometry">
            <mxPoint x="7" y="-2" as="offset" />
          </mxGeometry>
        </mxCell>
        <mxCell id="mxeJzW8ZGcNlbu38qCdp-56" value="" style="endArrow=open;html=1;rounded=0;exitX=0.25;exitY=1;exitDx=0;exitDy=0;strokeWidth=2;endFill=0;" parent="1" source="Kf9qd6CPrOdVnlglGHAT-5" edge="1">
          <mxGeometry width="50" height="50" relative="1" as="geometry">
            <mxPoint x="720" y="738" as="sourcePoint" />
            <mxPoint x="720" y="920" as="targetPoint" />
          </mxGeometry>
        </mxCell>
        <mxCell id="mxeJzW8ZGcNlbu38qCdp-57" value="notify_refund_sent" style="edgeLabel;html=1;align=center;verticalAlign=middle;resizable=0;points=[];fontSize=11;" parent="mxeJzW8ZGcNlbu38qCdp-56" connectable="0" vertex="1">
          <mxGeometry x="0.1352" y="-1" relative="1" as="geometry">
            <mxPoint x="-9" y="6" as="offset" />
          </mxGeometry>
        </mxCell>
        <mxCell id="mxeJzW8ZGcNlbu38qCdp-58" value="" style="endArrow=open;html=1;rounded=0;exitX=0.75;exitY=1;exitDx=0;exitDy=0;strokeWidth=2;endFill=0;" parent="1" source="Kf9qd6CPrOdVnlglGHAT-5" edge="1">
          <mxGeometry width="50" height="50" relative="1" as="geometry">
            <mxPoint x="816.8000000000002" y="767.3358800000001" as="sourcePoint" />
            <mxPoint x="810" y="920" as="targetPoint" />
          </mxGeometry>
        </mxCell>
        <mxCell id="mxeJzW8ZGcNlbu38qCdp-59" value="notify_offchain_funds_sent" style="edgeLabel;html=1;align=center;verticalAlign=middle;resizable=0;points=[];fontSize=11;" parent="mxeJzW8ZGcNlbu38qCdp-58" connectable="0" vertex="1">
          <mxGeometry x="-0.0667" relative="1" as="geometry">
            <mxPoint x="20" y="19" as="offset" />
          </mxGeometry>
        </mxCell>
        <mxCell id="3zLw-5_e-Gk6-DkVr-vM-1" value="" style="rounded=1;whiteSpace=wrap;html=1;fillColor=#d5e8d4;strokeColor=none;" parent="1" vertex="1">
          <mxGeometry x="670" y="496" width="180" height="70" as="geometry" />
        </mxCell>
        <mxCell id="3zLw-5_e-Gk6-DkVr-vM-2" value="pending_sender" style="rounded=1;whiteSpace=wrap;html=1;verticalAlign=top;align=left;fillColor=#6d8764;fontFamily=Tahoma;strokeColor=none;fontColor=#ffffff;" parent="1" vertex="1">
          <mxGeometry x="675" y="505" width="105" height="30" as="geometry" />
        </mxCell>
        <mxCell id="BmFnIRON6w-JdGfR3euQ-2" style="edgeStyle=orthogonalEdgeStyle;rounded=1;orthogonalLoop=1;jettySize=auto;html=1;entryX=0.75;entryY=0;entryDx=0;entryDy=0;strokeWidth=2;endArrow=open;endFill=0;" parent="1" edge="1">
          <mxGeometry relative="1" as="geometry">
            <mxPoint x="1047.5" y="576" as="sourcePoint" />
            <mxPoint x="1047.5" y="651" as="targetPoint" />
          </mxGeometry>
        </mxCell>
        <mxCell id="BmFnIRON6w-JdGfR3euQ-3" value="notify_transaction_error&lt;br style=&quot;border-color: var(--border-color);&quot;&gt;notify_transaction_expired" style="edgeLabel;html=1;align=center;verticalAlign=middle;resizable=0;points=[];" parent="BmFnIRON6w-JdGfR3euQ-2" vertex="1" connectable="0">
          <mxGeometry x="-0.04" y="1" relative="1" as="geometry">
            <mxPoint as="offset" />
          </mxGeometry>
        </mxCell>
        <mxCell id="yReZv6md1lE1Uv3bfNHC-1" value="Any status other than completed or refunded" style="rounded=1;whiteSpace=wrap;html=1;fillColor=#f5f5f5;fontColor=#333333;strokeColor=none;verticalAlign=top;" parent="1" vertex="1">
          <mxGeometry x="983" y="496" width="130" height="80" as="geometry" />
        </mxCell>
        <mxCell id="avnREUv3o3WgOM-XI5gU-1" value="" style="rounded=1;whiteSpace=wrap;html=1;fillColor=#f8cecc;strokeColor=none;" parent="1" vertex="1">
          <mxGeometry x="980" y="655" width="130" height="60" as="geometry" />
        </mxCell>
        <mxCell id="avnREUv3o3WgOM-XI5gU-2" value="&lt;font face=&quot;Tahoma&quot;&gt;error/expired&lt;/font&gt;" style="rounded=1;whiteSpace=wrap;html=1;align=left;verticalAlign=top;strokeColor=none;fillColor=#e51400;fontColor=#ffffff;" parent="1" vertex="1">
          <mxGeometry x="988" y="661" width="80" height="25" as="geometry" />
        </mxCell>
        <mxCell id="avnREUv3o3WgOM-XI5gU-6" value="" style="rounded=1;whiteSpace=wrap;html=1;fillColor=#d5e8d4;strokeColor=none;" parent="1" vertex="1">
          <mxGeometry x="570" y="921" width="180" height="60" as="geometry" />
        </mxCell>
        <mxCell id="avnREUv3o3WgOM-XI5gU-5" value="refunded" style="rounded=1;whiteSpace=wrap;html=1;verticalAlign=top;align=left;fillColor=#6d8764;fontFamily=Tahoma;strokeColor=none;fontColor=#ffffff;" parent="1" vertex="1">
          <mxGeometry x="575" y="926" width="105" height="30" as="geometry" />
        </mxCell>
        <mxCell id="avnREUv3o3WgOM-XI5gU-9" value="" style="rounded=1;whiteSpace=wrap;html=1;fillColor=#d5e8d4;strokeColor=none;" parent="1" vertex="1">
          <mxGeometry x="780" y="921" width="180" height="60" as="geometry" />
        </mxCell>
        <mxCell id="avnREUv3o3WgOM-XI5gU-10" value="completed" style="rounded=1;whiteSpace=wrap;html=1;verticalAlign=top;align=left;fillColor=#6d8764;fontFamily=Tahoma;strokeColor=none;fontColor=#ffffff;" parent="1" vertex="1">
          <mxGeometry x="788" y="927" width="105" height="30" as="geometry" />
        </mxCell>
        <mxCell id="Kf9qd6CPrOdVnlglGHAT-26" style="edgeStyle=orthogonalEdgeStyle;rounded=0;orthogonalLoop=1;jettySize=auto;html=1;exitX=0;exitY=0.5;exitDx=0;exitDy=0;strokeWidth=2;endArrow=open;endFill=0;" parent="1" source="05dBtIRlAfErdCgNeG_9-1" edge="1">
          <mxGeometry relative="1" as="geometry">
            <mxPoint x="810" y="830" as="targetPoint" />
          </mxGeometry>
        </mxCell>
        <mxCell id="05dBtIRlAfErdCgNeG_9-1" value="" style="rounded=1;whiteSpace=wrap;html=1;fillColor=#fff2cc;strokeColor=none;" parent="1" vertex="1">
          <mxGeometry x="980" y="800" width="130" height="60" as="geometry" />
        </mxCell>
        <mxCell id="05dBtIRlAfErdCgNeG_9-2" value="&lt;font face=&quot;Tahoma&quot;&gt;pending_external&lt;/font&gt;" style="rounded=1;whiteSpace=wrap;html=1;align=left;verticalAlign=top;strokeColor=none;fillColor=#f0a30a;fontColor=#000000;" parent="1" vertex="1">
          <mxGeometry x="988" y="806" width="100" height="30" as="geometry" />
        </mxCell>
        <mxCell id="Kf9qd6CPrOdVnlglGHAT-23" style="edgeStyle=orthogonalEdgeStyle;rounded=0;orthogonalLoop=1;jettySize=auto;html=1;exitX=1;exitY=0.5;exitDx=0;exitDy=0;strokeWidth=2;endArrow=open;endFill=0;" parent="1" source="Kf9qd6CPrOdVnlglGHAT-1" edge="1">
          <mxGeometry relative="1" as="geometry">
            <mxPoint x="720" y="830" as="targetPoint" />
          </mxGeometry>
        </mxCell>
        <mxCell id="Kf9qd6CPrOdVnlglGHAT-24" value="(&lt;font style=&quot;border-color: var(--border-color);&quot; color=&quot;#0066cc&quot;&gt;Update&lt;/font&gt;&lt;font style=&quot;border-color: var(--border-color); color: rgb(0, 153, 227);&quot;&gt;&amp;nbsp;&lt;/font&gt;&lt;font style=&quot;border-color: var(--border-color);&quot; color=&quot;#0066cc&quot;&gt;custody payment&lt;/font&gt;)" style="edgeLabel;html=1;align=center;verticalAlign=middle;resizable=0;points=[];" parent="Kf9qd6CPrOdVnlglGHAT-23" vertex="1" connectable="0">
          <mxGeometry x="-0.3295" y="-2" relative="1" as="geometry">
            <mxPoint x="-6" y="-2" as="offset" />
          </mxGeometry>
        </mxCell>
        <mxCell id="Kf9qd6CPrOdVnlglGHAT-1" value="" style="rounded=1;whiteSpace=wrap;html=1;fillColor=#fff2cc;strokeColor=none;" parent="1" vertex="1">
          <mxGeometry x="280" y="800" width="130" height="60" as="geometry" />
        </mxCell>
        <mxCell id="Kf9qd6CPrOdVnlglGHAT-2" value="&lt;font face=&quot;Tahoma&quot;&gt;pending_stellar&lt;/font&gt;" style="rounded=1;whiteSpace=wrap;html=1;align=left;verticalAlign=top;strokeColor=none;fillColor=#f0a30a;fontColor=#000000;" parent="1" vertex="1">
          <mxGeometry x="286" y="806" width="100" height="30" as="geometry" />
        </mxCell>
        <mxCell id="Kf9qd6CPrOdVnlglGHAT-16" style="edgeStyle=orthogonalEdgeStyle;rounded=1;orthogonalLoop=1;jettySize=auto;html=1;exitX=0.5;exitY=1;exitDx=0;exitDy=0;entryX=0;entryY=0.25;entryDx=0;entryDy=0;strokeWidth=2;endArrow=open;endFill=0;" parent="1" source="Kf9qd6CPrOdVnlglGHAT-3" target="Kf9qd6CPrOdVnlglGHAT-5" edge="1">
          <mxGeometry relative="1" as="geometry" />
        </mxCell>
        <mxCell id="Kf9qd6CPrOdVnlglGHAT-17" value="notify_customer_info_updated" style="edgeLabel;html=1;align=center;verticalAlign=middle;resizable=0;points=[];" parent="Kf9qd6CPrOdVnlglGHAT-16" vertex="1" connectable="0">
          <mxGeometry x="0.009" y="-1" relative="1" as="geometry">
            <mxPoint x="35" y="1" as="offset" />
          </mxGeometry>
        </mxCell>
        <mxCell id="Kf9qd6CPrOdVnlglGHAT-3" value="" style="rounded=1;whiteSpace=wrap;html=1;fillColor=#fff2cc;strokeColor=none;" parent="1" vertex="1">
          <mxGeometry x="252" y="607.5" width="200" height="70" as="geometry" />
        </mxCell>
        <mxCell id="Kf9qd6CPrOdVnlglGHAT-4" value="pending_customer_info_update" style="rounded=1;whiteSpace=wrap;html=1;align=left;verticalAlign=top;strokeColor=none;fillColor=#f0a30a;fontColor=#000000;" parent="1" vertex="1">
          <mxGeometry x="258" y="613.5" width="174" height="34" as="geometry" />
        </mxCell>
        <mxCell id="Kf9qd6CPrOdVnlglGHAT-12" style="edgeStyle=orthogonalEdgeStyle;rounded=1;orthogonalLoop=1;jettySize=auto;html=1;exitX=0;exitY=0.75;exitDx=0;exitDy=0;entryX=0.554;entryY=-0.033;entryDx=0;entryDy=0;entryPerimeter=0;strokeWidth=2;endArrow=open;endFill=0;" parent="1" source="Kf9qd6CPrOdVnlglGHAT-5" target="Kf9qd6CPrOdVnlglGHAT-1" edge="1">
          <mxGeometry relative="1" as="geometry" />
        </mxCell>
        <mxCell id="Kf9qd6CPrOdVnlglGHAT-13" value="do_stellar_refund&lt;br style=&quot;border-color: var(--border-color);&quot;&gt;(&lt;font style=&quot;border-color: var(--border-color);&quot; color=&quot;#0066cc&quot;&gt;Do&amp;nbsp;custody payment&lt;/font&gt;)" style="edgeLabel;html=1;align=center;verticalAlign=middle;resizable=0;points=[];" parent="Kf9qd6CPrOdVnlglGHAT-12" vertex="1" connectable="0">
          <mxGeometry x="0.021" y="1" relative="1" as="geometry">
            <mxPoint x="3" y="4" as="offset" />
          </mxGeometry>
        </mxCell>
        <mxCell id="Kf9qd6CPrOdVnlglGHAT-14" style="edgeStyle=orthogonalEdgeStyle;rounded=1;orthogonalLoop=1;jettySize=auto;html=1;exitX=0.25;exitY=0;exitDx=0;exitDy=0;entryX=1;entryY=0.5;entryDx=0;entryDy=0;strokeWidth=2;endArrow=open;endFill=0;" parent="1" source="Kf9qd6CPrOdVnlglGHAT-5" target="Kf9qd6CPrOdVnlglGHAT-3" edge="1">
          <mxGeometry relative="1" as="geometry" />
        </mxCell>
        <mxCell id="Kf9qd6CPrOdVnlglGHAT-15" value="notify_customer_info_updated" style="edgeLabel;html=1;align=center;verticalAlign=middle;resizable=0;points=[];" parent="Kf9qd6CPrOdVnlglGHAT-14" vertex="1" connectable="0">
          <mxGeometry x="0.4876" y="3" relative="1" as="geometry">
            <mxPoint x="49" y="-3" as="offset" />
          </mxGeometry>
        </mxCell>
        <mxCell id="Kf9qd6CPrOdVnlglGHAT-18" style="edgeStyle=orthogonalEdgeStyle;rounded=1;orthogonalLoop=1;jettySize=auto;html=1;exitX=1;exitY=0.5;exitDx=0;exitDy=0;entryX=0.554;entryY=0.017;entryDx=0;entryDy=0;entryPerimeter=0;strokeWidth=2;endArrow=open;endFill=0;" parent="1" source="Kf9qd6CPrOdVnlglGHAT-5" target="05dBtIRlAfErdCgNeG_9-1" edge="1">
          <mxGeometry relative="1" as="geometry" />
        </mxCell>
        <mxCell id="Kf9qd6CPrOdVnlglGHAT-19" value="notify_offchain_funds_pending" style="edgeLabel;html=1;align=center;verticalAlign=middle;resizable=0;points=[];" parent="Kf9qd6CPrOdVnlglGHAT-18" vertex="1" connectable="0">
          <mxGeometry x="-0.3416" y="-2" relative="1" as="geometry">
            <mxPoint x="7" y="-2" as="offset" />
          </mxGeometry>
        </mxCell>
        <mxCell id="Kf9qd6CPrOdVnlglGHAT-5" value="" style="rounded=1;whiteSpace=wrap;html=1;fillColor=#d5e8d4;strokeColor=none;" parent="1" vertex="1">
          <mxGeometry x="675" y="720" width="180" height="70" as="geometry" />
        </mxCell>
        <mxCell id="Kf9qd6CPrOdVnlglGHAT-6" value="pending_receiver" style="rounded=1;whiteSpace=wrap;html=1;verticalAlign=top;align=left;fillColor=#6d8764;fontFamily=Tahoma;strokeColor=none;fontColor=#ffffff;" parent="1" vertex="1">
          <mxGeometry x="680" y="729" width="105" height="30" as="geometry" />
        </mxCell>
        <mxCell id="MjSyEAo8ha0iVIPv7yy3-1" value="" style="rounded=1;whiteSpace=wrap;html=1;fillColor=#d5e8d4;strokeColor=none;" vertex="1" parent="1">
          <mxGeometry x="670" y="320" width="180" height="70" as="geometry" />
        </mxCell>
        <mxCell id="MjSyEAo8ha0iVIPv7yy3-2" value="pending_receiver" style="rounded=1;whiteSpace=wrap;html=1;verticalAlign=top;align=left;fillColor=#6d8764;fontFamily=Tahoma;strokeColor=none;fontColor=#ffffff;" vertex="1" parent="1">
          <mxGeometry x="675" y="330" width="105" height="30" as="geometry" />
        </mxCell>
        <mxCell id="MjSyEAo8ha0iVIPv7yy3-3" value="" style="endArrow=open;html=1;rounded=1;exitX=0.5;exitY=1;exitDx=0;exitDy=0;endFill=0;strokeWidth=2;entryX=0.5;entryY=0;entryDx=0;entryDy=0;" edge="1" parent="1" target="3zLw-5_e-Gk6-DkVr-vM-1">
          <mxGeometry width="50" height="50" relative="1" as="geometry">
            <mxPoint x="760" y="390" as="sourcePoint" />
            <mxPoint x="760" y="490" as="targetPoint" />
            <Array as="points" />
          </mxGeometry>
        </mxCell>
        <mxCell id="MjSyEAo8ha0iVIPv7yy3-4" value="request_onchain_funds" style="edgeLabel;html=1;align=center;verticalAlign=middle;resizable=0;points=[];" connectable="0" vertex="1" parent="MjSyEAo8ha0iVIPv7yy3-3">
          <mxGeometry x="-0.55" y="-1" relative="1" as="geometry">
            <mxPoint x="2" y="1" as="offset" />
          </mxGeometry>
        </mxCell>
      </root>
    </mxGraphModel>
  </diagram>
  <diagram name="Sep-6 - deposit v0.1" id="X3D_OyndUmuuZC4qxhv-">
    <mxGraphModel dx="1104" dy="869" grid="1" gridSize="10" guides="1" tooltips="1" connect="1" arrows="1" fold="1" page="1" pageScale="1" pageWidth="850" pageHeight="1100" math="0" shadow="0">
      <root>
        <mxCell id="0" />
        <mxCell id="1" parent="0" />
        <mxCell id="h22mPx_gXA2pDTQSfuNM-1" value="" style="rounded=0;whiteSpace=wrap;html=1;strokeWidth=0;glass=0;strokeColor=#c521c8;fontColor=#c521c8;" parent="1" vertex="1">
          <mxGeometry width="1180" height="793" as="geometry" />
        </mxCell>
        <mxCell id="h22mPx_gXA2pDTQSfuNM-2" value="" style="group" parent="1" vertex="1" connectable="0">
          <mxGeometry x="620" y="83" width="508" height="163" as="geometry" />
        </mxCell>
        <mxCell id="h22mPx_gXA2pDTQSfuNM-3" value="" style="rounded=1;whiteSpace=wrap;html=1;fillColor=#d5e8d4;strokeColor=#82b366;" parent="h22mPx_gXA2pDTQSfuNM-2" vertex="1">
          <mxGeometry x="240" y="5" width="50" height="20" as="geometry" />
        </mxCell>
        <mxCell id="h22mPx_gXA2pDTQSfuNM-4" value="shortest e2e status flow" style="text;strokeColor=none;align=center;fillColor=none;html=1;verticalAlign=middle;whiteSpace=wrap;rounded=0;" parent="h22mPx_gXA2pDTQSfuNM-2" vertex="1">
          <mxGeometry x="290" width="140" height="30" as="geometry" />
        </mxCell>
        <mxCell id="h22mPx_gXA2pDTQSfuNM-5" value="" style="rounded=1;whiteSpace=wrap;html=1;fillColor=#fff2cc;strokeColor=#d6b656;" parent="h22mPx_gXA2pDTQSfuNM-2" vertex="1">
          <mxGeometry x="240" y="30" width="50" height="20" as="geometry" />
        </mxCell>
        <mxCell id="h22mPx_gXA2pDTQSfuNM-6" value="optional status, available for business" style="text;strokeColor=none;align=center;fillColor=none;html=1;verticalAlign=middle;whiteSpace=wrap;rounded=0;" parent="h22mPx_gXA2pDTQSfuNM-2" vertex="1">
          <mxGeometry x="288" y="25" width="220" height="30" as="geometry" />
        </mxCell>
        <mxCell id="h22mPx_gXA2pDTQSfuNM-7" value="(&lt;font style=&quot;border-color: var(--border-color); text-align: left;&quot; color=&quot;#66b2ff&quot;&gt;function&lt;/font&gt;&lt;span style=&quot;text-align: left;&quot;&gt;)&lt;/span&gt;" style="rounded=1;whiteSpace=wrap;html=1;fillColor=none;strokeColor=none;" parent="h22mPx_gXA2pDTQSfuNM-2" vertex="1">
          <mxGeometry x="240" y="55" width="54" height="20" as="geometry" />
        </mxCell>
        <mxCell id="h22mPx_gXA2pDTQSfuNM-8" value="&lt;font style=&quot;border-color: var(--border-color); text-align: left;&quot;&gt;a side effect that will be triggered by an action&lt;br style=&quot;border-color: var(--border-color);&quot;&gt;&lt;/font&gt;if its Anchor is in custody mode" style="text;strokeColor=none;align=left;fillColor=none;html=1;verticalAlign=middle;whiteSpace=wrap;rounded=0;labelPosition=right;verticalLabelPosition=middle;" parent="h22mPx_gXA2pDTQSfuNM-2" vertex="1">
          <mxGeometry y="55" width="300" height="30" as="geometry" />
        </mxCell>
        <mxCell id="h22mPx_gXA2pDTQSfuNM-9" value="" style="endArrow=open;html=1;rounded=0;endFill=0;strokeColor=#9b1599;strokeWidth=2;" parent="h22mPx_gXA2pDTQSfuNM-2" edge="1">
          <mxGeometry width="50" height="50" relative="1" as="geometry">
            <mxPoint x="240" y="95" as="sourcePoint" />
            <mxPoint x="290" y="95" as="targetPoint" />
          </mxGeometry>
        </mxCell>
        <mxCell id="h22mPx_gXA2pDTQSfuNM-10" value="&lt;font style=&quot;border-color: var(--border-color);&quot;&gt;actions available for a business that&lt;br style=&quot;border-color: var(--border-color);&quot;&gt;&lt;/font&gt;doesn&#39;t use custody. Can be used to reflect &lt;br&gt;trustline&amp;nbsp;&lt;span style=&quot;&quot;&gt;state on a destination account&lt;/span&gt;" style="text;strokeColor=none;align=left;fillColor=none;html=1;verticalAlign=middle;whiteSpace=wrap;rounded=0;labelPosition=right;verticalLabelPosition=middle;" parent="h22mPx_gXA2pDTQSfuNM-2" vertex="1">
          <mxGeometry y="95" width="300" height="30" as="geometry" />
        </mxCell>
        <mxCell id="h22mPx_gXA2pDTQSfuNM-11" value="" style="endArrow=open;html=1;rounded=0;endFill=0;strokeColor=#BD7000;strokeWidth=2;fillColor=#f0a30a;" parent="h22mPx_gXA2pDTQSfuNM-2" edge="1">
          <mxGeometry width="50" height="50" relative="1" as="geometry">
            <mxPoint x="240" y="144" as="sourcePoint" />
            <mxPoint x="290" y="144" as="targetPoint" />
          </mxGeometry>
        </mxCell>
        <mxCell id="h22mPx_gXA2pDTQSfuNM-12" value="&lt;font style=&quot;border-color: var(--border-color); text-align: left;&quot;&gt;actions&amp;nbsp;available for a business that&lt;br style=&quot;border-color: var(--border-color);&quot;&gt;&lt;/font&gt;uses custody service" style="text;strokeColor=none;align=left;fillColor=none;html=1;verticalAlign=middle;whiteSpace=wrap;rounded=0;labelPosition=right;verticalLabelPosition=middle;" parent="h22mPx_gXA2pDTQSfuNM-2" vertex="1">
          <mxGeometry y="134" width="300" height="30" as="geometry" />
        </mxCell>
        <mxCell id="h22mPx_gXA2pDTQSfuNM-13" style="edgeStyle=orthogonalEdgeStyle;rounded=1;orthogonalLoop=1;jettySize=auto;html=1;exitX=1;exitY=0.5;exitDx=0;exitDy=0;entryX=0.5;entryY=0;entryDx=0;entryDy=0;endArrow=open;endFill=0;jumpStyle=none;strokeWidth=2;" parent="1" source="h22mPx_gXA2pDTQSfuNM-15" target="h22mPx_gXA2pDTQSfuNM-35" edge="1">
          <mxGeometry relative="1" as="geometry">
            <mxPoint x="531" y="118" as="sourcePoint" />
          </mxGeometry>
        </mxCell>
        <mxCell id="h22mPx_gXA2pDTQSfuNM-14" value="notify_customer_info_updated" style="edgeLabel;html=1;align=center;verticalAlign=middle;resizable=0;points=[];" parent="h22mPx_gXA2pDTQSfuNM-13" vertex="1" connectable="0">
          <mxGeometry x="0.6017" relative="1" as="geometry">
            <mxPoint y="13" as="offset" />
          </mxGeometry>
        </mxCell>
        <mxCell id="h22mPx_gXA2pDTQSfuNM-15" value="" style="rounded=1;whiteSpace=wrap;html=1;fillColor=#d5e8d4;strokeColor=none;align=left;verticalAlign=top;" parent="1" vertex="1">
          <mxGeometry x="316" y="83" width="180" height="70" as="geometry" />
        </mxCell>
        <mxCell id="h22mPx_gXA2pDTQSfuNM-16" style="edgeStyle=orthogonalEdgeStyle;rounded=0;orthogonalLoop=1;jettySize=auto;html=1;exitX=0.5;exitY=1;exitDx=0;exitDy=0;entryX=0.5;entryY=0;entryDx=0;entryDy=0;strokeWidth=2;endArrow=open;endFill=0;" parent="1" edge="1">
          <mxGeometry relative="1" as="geometry">
            <mxPoint x="400" y="343" as="sourcePoint" />
            <mxPoint x="400" y="465" as="targetPoint" />
          </mxGeometry>
        </mxCell>
        <mxCell id="h22mPx_gXA2pDTQSfuNM-17" value="notify_offchain_funds_received" style="edgeLabel;html=1;align=center;verticalAlign=middle;resizable=0;points=[];" parent="h22mPx_gXA2pDTQSfuNM-16" vertex="1" connectable="0">
          <mxGeometry x="-0.0219" y="-3" relative="1" as="geometry">
            <mxPoint x="3" y="10" as="offset" />
          </mxGeometry>
        </mxCell>
        <mxCell id="h22mPx_gXA2pDTQSfuNM-18" value="(Create custody transaction*)" style="edgeLabel;html=1;align=center;verticalAlign=middle;resizable=0;points=[];fontColor=#67bbfd;" parent="h22mPx_gXA2pDTQSfuNM-16" vertex="1" connectable="0">
          <mxGeometry x="0.4595" y="1" relative="1" as="geometry">
            <mxPoint x="4" y="1" as="offset" />
          </mxGeometry>
        </mxCell>
        <mxCell id="h22mPx_gXA2pDTQSfuNM-19" style="edgeStyle=orthogonalEdgeStyle;rounded=1;orthogonalLoop=1;jettySize=auto;html=1;exitX=1;exitY=0.5;exitDx=0;exitDy=0;entryX=0.5;entryY=0;entryDx=0;entryDy=0;strokeWidth=2;endArrow=open;endFill=0;" parent="1" source="h22mPx_gXA2pDTQSfuNM-21" target="h22mPx_gXA2pDTQSfuNM-37" edge="1">
          <mxGeometry relative="1" as="geometry" />
        </mxCell>
        <mxCell id="h22mPx_gXA2pDTQSfuNM-20" value="notify_offchain_funds_sent" style="edgeLabel;html=1;align=center;verticalAlign=middle;resizable=0;points=[];" parent="h22mPx_gXA2pDTQSfuNM-19" vertex="1" connectable="0">
          <mxGeometry x="0.7925" relative="1" as="geometry">
            <mxPoint as="offset" />
          </mxGeometry>
        </mxCell>
        <mxCell id="h22mPx_gXA2pDTQSfuNM-21" value="" style="rounded=1;whiteSpace=wrap;html=1;fillColor=#d5e8d4;strokeColor=none;" parent="1" vertex="1">
          <mxGeometry x="316" y="273" width="180" height="70" as="geometry" />
        </mxCell>
        <mxCell id="h22mPx_gXA2pDTQSfuNM-22" style="edgeStyle=orthogonalEdgeStyle;rounded=1;orthogonalLoop=1;jettySize=auto;html=1;exitX=0.007;exitY=0.413;exitDx=0;exitDy=0;entryX=0.5;entryY=0;entryDx=0;entryDy=0;strokeWidth=2;endArrow=open;endFill=0;exitPerimeter=0;" parent="1" source="h22mPx_gXA2pDTQSfuNM-31" target="h22mPx_gXA2pDTQSfuNM-52" edge="1">
          <mxGeometry relative="1" as="geometry" />
        </mxCell>
        <mxCell id="h22mPx_gXA2pDTQSfuNM-23" value="notify_refund_pending" style="edgeLabel;html=1;align=center;verticalAlign=middle;resizable=0;points=[];" parent="h22mPx_gXA2pDTQSfuNM-22" vertex="1" connectable="0">
          <mxGeometry x="0.7751" y="1" relative="1" as="geometry">
            <mxPoint x="-1" y="-4" as="offset" />
          </mxGeometry>
        </mxCell>
        <mxCell id="h22mPx_gXA2pDTQSfuNM-24" style="rounded=0;orthogonalLoop=1;jettySize=auto;html=1;exitX=0.139;exitY=0.971;exitDx=0;exitDy=0;exitPerimeter=0;strokeWidth=2;endArrow=open;endFill=0;entryX=0.5;entryY=0;entryDx=0;entryDy=0;" parent="1" target="h22mPx_gXA2pDTQSfuNM-65" edge="1">
          <mxGeometry relative="1" as="geometry">
            <mxPoint x="331.99" y="661.02" as="targetPoint" />
            <mxPoint x="333.02" y="532.97" as="sourcePoint" />
          </mxGeometry>
        </mxCell>
        <mxCell id="h22mPx_gXA2pDTQSfuNM-25" value="notify_refund_sent" style="edgeLabel;html=1;align=center;verticalAlign=middle;resizable=0;points=[];" parent="h22mPx_gXA2pDTQSfuNM-24" vertex="1" connectable="0">
          <mxGeometry x="0.2745" y="-2" relative="1" as="geometry">
            <mxPoint y="10" as="offset" />
          </mxGeometry>
        </mxCell>
        <mxCell id="h22mPx_gXA2pDTQSfuNM-26" style="edgeStyle=orthogonalEdgeStyle;rounded=1;orthogonalLoop=1;jettySize=auto;html=1;entryX=0.577;entryY=0.025;entryDx=0;entryDy=0;entryPerimeter=0;fillColor=#f0a30a;strokeColor=#BD7000;strokeWidth=2;endArrow=open;endFill=0;" parent="1" edge="1">
          <mxGeometry relative="1" as="geometry">
            <mxPoint x="497" y="482" as="sourcePoint" />
            <mxPoint x="956.0100000000002" y="543.0049999999999" as="targetPoint" />
          </mxGeometry>
        </mxCell>
        <mxCell id="h22mPx_gXA2pDTQSfuNM-27" value="do_stellar_payment" style="edgeLabel;html=1;align=center;verticalAlign=middle;resizable=0;points=[];fontColor=#e0400b;" parent="h22mPx_gXA2pDTQSfuNM-26" vertex="1" connectable="0">
          <mxGeometry x="-0.389" y="-1" relative="1" as="geometry">
            <mxPoint x="-80" y="-1" as="offset" />
          </mxGeometry>
        </mxCell>
        <mxCell id="h22mPx_gXA2pDTQSfuNM-28" value="(Do custody payment)" style="edgeLabel;html=1;align=center;verticalAlign=middle;resizable=0;points=[];fontColor=#67b4fc;" parent="h22mPx_gXA2pDTQSfuNM-26" vertex="1" connectable="0">
          <mxGeometry x="0.8848" y="-1" relative="1" as="geometry">
            <mxPoint y="-5" as="offset" />
          </mxGeometry>
        </mxCell>
        <mxCell id="h22mPx_gXA2pDTQSfuNM-29" style="edgeStyle=orthogonalEdgeStyle;rounded=1;orthogonalLoop=1;jettySize=auto;html=1;exitX=1;exitY=0.5;exitDx=0;exitDy=0;entryX=0.25;entryY=0;entryDx=0;entryDy=0;fillColor=#e1d5e7;strokeColor=#9c079c;strokeWidth=2;endArrow=open;endFill=0;" parent="1" source="h22mPx_gXA2pDTQSfuNM-31" target="h22mPx_gXA2pDTQSfuNM-59" edge="1">
          <mxGeometry relative="1" as="geometry">
            <Array as="points">
              <mxPoint x="627" y="502" />
            </Array>
          </mxGeometry>
        </mxCell>
        <mxCell id="h22mPx_gXA2pDTQSfuNM-30" value="request_trust" style="edgeLabel;html=1;align=center;verticalAlign=middle;resizable=0;points=[];fontColor=#b60fcc;" parent="h22mPx_gXA2pDTQSfuNM-29" vertex="1" connectable="0">
          <mxGeometry x="-0.1111" relative="1" as="geometry">
            <mxPoint as="offset" />
          </mxGeometry>
        </mxCell>
        <mxCell id="h22mPx_gXA2pDTQSfuNM-31" value="" style="rounded=1;whiteSpace=wrap;html=1;fillColor=#d5e8d4;strokeColor=none;" parent="1" vertex="1">
          <mxGeometry x="316" y="465" width="180" height="70" as="geometry" />
        </mxCell>
        <mxCell id="h22mPx_gXA2pDTQSfuNM-32" value="" style="endArrow=open;html=1;rounded=0;entryX=0.5;entryY=0;entryDx=0;entryDy=0;strokeWidth=2;endFill=0;" parent="1" edge="1">
          <mxGeometry width="50" height="50" relative="1" as="geometry">
            <mxPoint x="399.5" y="153" as="sourcePoint" />
            <mxPoint x="399.5" y="273" as="targetPoint" />
          </mxGeometry>
        </mxCell>
        <mxCell id="h22mPx_gXA2pDTQSfuNM-33" value="request_offchain_funds" style="edgeLabel;html=1;align=center;verticalAlign=middle;resizable=0;points=[];" parent="h22mPx_gXA2pDTQSfuNM-32" connectable="0" vertex="1">
          <mxGeometry x="-0.495" relative="1" as="geometry">
            <mxPoint x="7" y="53" as="offset" />
          </mxGeometry>
        </mxCell>
        <mxCell id="h22mPx_gXA2pDTQSfuNM-34" style="edgeStyle=orthogonalEdgeStyle;orthogonalLoop=1;jettySize=auto;html=1;exitX=0;exitY=0.5;exitDx=0;exitDy=0;rounded=1;strokeWidth=2;endArrow=open;endFill=0;" parent="1" source="h22mPx_gXA2pDTQSfuNM-35" edge="1">
          <mxGeometry relative="1" as="geometry">
            <mxPoint x="400" y="213" as="targetPoint" />
          </mxGeometry>
        </mxCell>
        <mxCell id="h22mPx_gXA2pDTQSfuNM-35" value="" style="rounded=1;whiteSpace=wrap;html=1;fillColor=#fff2cc;strokeColor=none;" parent="1" vertex="1">
          <mxGeometry x="607" y="156" width="193" height="57" as="geometry" />
        </mxCell>
        <mxCell id="h22mPx_gXA2pDTQSfuNM-36" style="edgeStyle=orthogonalEdgeStyle;rounded=0;orthogonalLoop=1;jettySize=auto;html=1;exitX=-0.008;exitY=0.633;exitDx=0;exitDy=0;strokeWidth=2;endArrow=open;endFill=0;exitPerimeter=0;" parent="1" source="h22mPx_gXA2pDTQSfuNM-37" edge="1">
          <mxGeometry relative="1" as="geometry">
            <mxPoint x="400" y="381" as="targetPoint" />
            <mxPoint x="568" y="381" as="sourcePoint" />
          </mxGeometry>
        </mxCell>
        <mxCell id="h22mPx_gXA2pDTQSfuNM-37" value="" style="rounded=1;whiteSpace=wrap;html=1;fillColor=#fff2cc;strokeColor=none;" parent="1" vertex="1">
          <mxGeometry x="608" y="343" width="130" height="60" as="geometry" />
        </mxCell>
        <mxCell id="h22mPx_gXA2pDTQSfuNM-38" value="SEP6 deposit flow" style="text;html=1;strokeColor=none;fillColor=none;align=center;verticalAlign=middle;whiteSpace=wrap;rounded=0;fontSize=17;fontStyle=1" parent="1" vertex="1">
          <mxGeometry x="300" y="18" width="250" height="30" as="geometry" />
        </mxCell>
        <mxCell id="h22mPx_gXA2pDTQSfuNM-39" style="edgeStyle=orthogonalEdgeStyle;rounded=1;orthogonalLoop=1;jettySize=auto;html=1;exitX=0.5;exitY=1;exitDx=0;exitDy=0;entryX=0;entryY=0.25;entryDx=0;entryDy=0;strokeWidth=2;endArrow=open;endFill=0;" parent="1" source="h22mPx_gXA2pDTQSfuNM-41" target="h22mPx_gXA2pDTQSfuNM-31" edge="1">
          <mxGeometry relative="1" as="geometry" />
        </mxCell>
        <mxCell id="h22mPx_gXA2pDTQSfuNM-40" value="notify _transaction_recovery" style="edgeLabel;html=1;align=center;verticalAlign=middle;resizable=0;points=[];" parent="h22mPx_gXA2pDTQSfuNM-39" vertex="1" connectable="0">
          <mxGeometry x="-0.0626" y="-1" relative="1" as="geometry">
            <mxPoint x="-53" y="-30" as="offset" />
          </mxGeometry>
        </mxCell>
        <mxCell id="h22mPx_gXA2pDTQSfuNM-41" value="" style="rounded=1;whiteSpace=wrap;html=1;fillColor=#f8cecc;strokeColor=none;" parent="1" vertex="1">
          <mxGeometry x="70" y="364" width="130" height="60" as="geometry" />
        </mxCell>
        <mxCell id="h22mPx_gXA2pDTQSfuNM-42" value="&lt;font&gt;incomplete&lt;/font&gt;" style="rounded=1;whiteSpace=wrap;html=1;verticalAlign=top;align=left;fillColor=#6d8764;fontFamily=Tahoma;strokeColor=none;fontColor=#ffffff;" parent="1" vertex="1">
          <mxGeometry x="320.5" y="89" width="75" height="26" as="geometry" />
        </mxCell>
        <mxCell id="h22mPx_gXA2pDTQSfuNM-43" value="&lt;font face=&quot;Tahoma&quot;&gt;pending_customer_info_update&lt;/font&gt;" style="rounded=1;whiteSpace=wrap;html=1;align=left;verticalAlign=top;strokeColor=none;fillColor=#f0a30a;fontColor=#000000;" parent="1" vertex="1">
          <mxGeometry x="612" y="161" width="178" height="32" as="geometry" />
        </mxCell>
        <mxCell id="h22mPx_gXA2pDTQSfuNM-44" style="edgeStyle=orthogonalEdgeStyle;rounded=1;orthogonalLoop=1;jettySize=auto;html=1;exitX=0.5;exitY=1;exitDx=0;exitDy=0;entryX=0.5;entryY=0;entryDx=0;entryDy=0;strokeWidth=2;endArrow=open;endFill=0;" parent="1" edge="1">
          <mxGeometry relative="1" as="geometry">
            <mxPoint x="136" y="299" as="sourcePoint" />
            <mxPoint x="136" y="364" as="targetPoint" />
          </mxGeometry>
        </mxCell>
        <mxCell id="h22mPx_gXA2pDTQSfuNM-45" value="notify_transaction_error&lt;br style=&quot;border-color: var(--border-color);&quot;&gt;notify_transaction_expired" style="edgeLabel;html=1;align=center;verticalAlign=middle;resizable=0;points=[];" parent="h22mPx_gXA2pDTQSfuNM-44" vertex="1" connectable="0">
          <mxGeometry x="0.1385" y="-3" relative="1" as="geometry">
            <mxPoint x="2" y="-10" as="offset" />
          </mxGeometry>
        </mxCell>
        <mxCell id="h22mPx_gXA2pDTQSfuNM-46" value="&lt;font style=&quot;&quot; face=&quot;Tahoma&quot;&gt;Any status other than completed or refunded&lt;/font&gt;" style="rounded=1;whiteSpace=wrap;html=1;fillColor=#f5f5f5;align=center;verticalAlign=top;fontColor=#333333;strokeColor=none;" parent="1" vertex="1">
          <mxGeometry x="66" y="236" width="138" height="63" as="geometry" />
        </mxCell>
        <mxCell id="h22mPx_gXA2pDTQSfuNM-47" value="pending_external" style="rounded=1;whiteSpace=wrap;html=1;align=left;verticalAlign=top;strokeColor=none;fillColor=#f0a30a;fontColor=#000000;" parent="1" vertex="1">
          <mxGeometry x="614" y="349" width="100" height="30" as="geometry" />
        </mxCell>
        <mxCell id="h22mPx_gXA2pDTQSfuNM-48" value="pending_user_transfer_start" style="rounded=1;whiteSpace=wrap;html=1;verticalAlign=top;align=left;fillColor=#6d8764;fontFamily=Tahoma;strokeColor=none;fontColor=#ffffff;" parent="1" vertex="1">
          <mxGeometry x="320" y="277" width="157.5" height="30" as="geometry" />
        </mxCell>
        <mxCell id="h22mPx_gXA2pDTQSfuNM-49" value="&lt;font face=&quot;Tahoma&quot;&gt;error/expired&lt;/font&gt;" style="rounded=1;whiteSpace=wrap;html=1;align=left;verticalAlign=top;strokeColor=none;fillColor=#e51400;fontColor=#ffffff;" parent="1" vertex="1">
          <mxGeometry x="78" y="370" width="80" height="25" as="geometry" />
        </mxCell>
        <mxCell id="h22mPx_gXA2pDTQSfuNM-50" value="pending_anchor" style="rounded=1;whiteSpace=wrap;html=1;verticalAlign=top;align=left;fillColor=#6d8764;fontFamily=Tahoma;strokeColor=none;fontColor=#ffffff;" parent="1" vertex="1">
          <mxGeometry x="320.5" y="470" width="100" height="24" as="geometry" />
        </mxCell>
        <mxCell id="h22mPx_gXA2pDTQSfuNM-51" style="edgeStyle=orthogonalEdgeStyle;rounded=1;orthogonalLoop=1;jettySize=auto;html=1;exitX=1;exitY=0.75;exitDx=0;exitDy=0;strokeWidth=2;endArrow=open;endFill=0;" parent="1" edge="1">
          <mxGeometry relative="1" as="geometry">
            <mxPoint x="331" y="588" as="targetPoint" />
            <mxPoint x="201" y="588" as="sourcePoint" />
          </mxGeometry>
        </mxCell>
        <mxCell id="h22mPx_gXA2pDTQSfuNM-52" value="" style="rounded=1;whiteSpace=wrap;html=1;fillColor=#fff2cc;strokeColor=none;" parent="1" vertex="1">
          <mxGeometry x="70" y="543" width="130" height="60" as="geometry" />
        </mxCell>
        <mxCell id="h22mPx_gXA2pDTQSfuNM-53" value="&lt;font face=&quot;Tahoma&quot;&gt;pending_external&lt;/font&gt;" style="rounded=1;whiteSpace=wrap;html=1;align=left;verticalAlign=top;strokeColor=none;fillColor=#f0a30a;fontColor=#000000;" parent="1" vertex="1">
          <mxGeometry x="78" y="549" width="100" height="30" as="geometry" />
        </mxCell>
        <mxCell id="h22mPx_gXA2pDTQSfuNM-54" style="edgeStyle=orthogonalEdgeStyle;rounded=1;orthogonalLoop=1;jettySize=auto;html=1;exitX=0;exitY=0.5;exitDx=0;exitDy=0;strokeWidth=2;endArrow=open;endFill=0;entryX=0.867;entryY=1.014;entryDx=0;entryDy=0;entryPerimeter=0;strokeColor=#c521c8;" parent="1" target="h22mPx_gXA2pDTQSfuNM-31" edge="1">
          <mxGeometry relative="1" as="geometry">
            <mxPoint x="600" y="578" as="sourcePoint" />
            <mxPoint x="458.02" y="535.03" as="targetPoint" />
          </mxGeometry>
        </mxCell>
        <mxCell id="h22mPx_gXA2pDTQSfuNM-55" value="notify_trust_set" style="edgeLabel;html=1;align=center;verticalAlign=middle;resizable=0;points=[];fontColor=#c521c8;" parent="h22mPx_gXA2pDTQSfuNM-54" vertex="1" connectable="0">
          <mxGeometry x="-0.1472" y="2" relative="1" as="geometry">
            <mxPoint y="-3" as="offset" />
          </mxGeometry>
        </mxCell>
        <mxCell id="h22mPx_gXA2pDTQSfuNM-56" style="edgeStyle=orthogonalEdgeStyle;rounded=0;orthogonalLoop=1;jettySize=auto;html=1;exitX=1;exitY=0.5;exitDx=0;exitDy=0;entryX=0;entryY=0.5;entryDx=0;entryDy=0;fillColor=#f0a30a;strokeColor=#BD7000;strokeWidth=2;endArrow=open;endFill=0;" parent="1" source="h22mPx_gXA2pDTQSfuNM-59" target="h22mPx_gXA2pDTQSfuNM-63" edge="1">
          <mxGeometry relative="1" as="geometry" />
        </mxCell>
        <mxCell id="h22mPx_gXA2pDTQSfuNM-57" value="notify_trust_set" style="edgeLabel;html=1;align=center;verticalAlign=middle;resizable=0;points=[];" parent="h22mPx_gXA2pDTQSfuNM-56" vertex="1" connectable="0">
          <mxGeometry x="-0.0988" relative="1" as="geometry">
            <mxPoint as="offset" />
          </mxGeometry>
        </mxCell>
        <mxCell id="h22mPx_gXA2pDTQSfuNM-58" value="(Do custody payment)" style="edgeLabel;html=1;align=center;verticalAlign=middle;resizable=0;points=[];fontColor=#84c7ff;" parent="h22mPx_gXA2pDTQSfuNM-56" vertex="1" connectable="0">
          <mxGeometry x="0.6262" y="-3" relative="1" as="geometry">
            <mxPoint x="-54" y="10" as="offset" />
          </mxGeometry>
        </mxCell>
        <mxCell id="h22mPx_gXA2pDTQSfuNM-59" value="" style="rounded=1;whiteSpace=wrap;html=1;fillColor=#fff2cc;strokeColor=none;" parent="1" vertex="1">
          <mxGeometry x="594" y="543" width="130" height="60" as="geometry" />
        </mxCell>
        <mxCell id="h22mPx_gXA2pDTQSfuNM-60" value="&lt;font face=&quot;Tahoma&quot;&gt;pending_trust&lt;/font&gt;" style="rounded=1;whiteSpace=wrap;html=1;align=left;verticalAlign=top;strokeColor=none;fillColor=#f0a30a;fontColor=#000000;" parent="1" vertex="1">
          <mxGeometry x="600" y="549" width="100" height="30" as="geometry" />
        </mxCell>
        <mxCell id="h22mPx_gXA2pDTQSfuNM-61" style="edgeStyle=orthogonalEdgeStyle;rounded=1;orthogonalLoop=1;jettySize=auto;html=1;exitX=0.5;exitY=1;exitDx=0;exitDy=0;strokeWidth=2;fillColor=#f0a30a;strokeColor=#BD7000;endArrow=open;endFill=0;" parent="1" edge="1">
          <mxGeometry relative="1" as="geometry">
            <mxPoint x="450" y="617" as="targetPoint" />
            <Array as="points">
              <mxPoint x="949" y="618" />
            </Array>
            <mxPoint x="949" y="599" as="sourcePoint" />
          </mxGeometry>
        </mxCell>
        <mxCell id="h22mPx_gXA2pDTQSfuNM-62" value="(Update custody payment)" style="edgeLabel;html=1;align=center;verticalAlign=middle;resizable=0;points=[];fontColor=#7fcffe;" parent="h22mPx_gXA2pDTQSfuNM-61" vertex="1" connectable="0">
          <mxGeometry x="0.1115" relative="1" as="geometry">
            <mxPoint as="offset" />
          </mxGeometry>
        </mxCell>
        <mxCell id="h22mPx_gXA2pDTQSfuNM-63" value="" style="rounded=1;whiteSpace=wrap;html=1;fillColor=#fff2cc;strokeColor=none;" parent="1" vertex="1">
          <mxGeometry x="884" y="544" width="130" height="60" as="geometry" />
        </mxCell>
        <mxCell id="h22mPx_gXA2pDTQSfuNM-64" value="&lt;font face=&quot;Tahoma&quot;&gt;pending_stellar&lt;/font&gt;" style="rounded=1;whiteSpace=wrap;html=1;align=left;verticalAlign=top;strokeColor=none;fillColor=#f0a30a;fontColor=#000000;" parent="1" vertex="1">
          <mxGeometry x="890" y="550" width="100" height="30" as="geometry" />
        </mxCell>
        <mxCell id="h22mPx_gXA2pDTQSfuNM-65" value="" style="rounded=1;whiteSpace=wrap;html=1;fillColor=#d5e8d4;strokeColor=none;" parent="1" vertex="1">
          <mxGeometry x="265.5" y="680" width="130" height="60" as="geometry" />
        </mxCell>
        <mxCell id="h22mPx_gXA2pDTQSfuNM-66" value="refunded" style="rounded=1;whiteSpace=wrap;html=1;verticalAlign=top;align=left;fillColor=#6d8764;fontFamily=Tahoma;strokeColor=none;fontColor=#ffffff;" parent="1" vertex="1">
          <mxGeometry x="272" y="685" width="59.5" height="24" as="geometry" />
        </mxCell>
        <mxCell id="h22mPx_gXA2pDTQSfuNM-67" value="" style="rounded=1;whiteSpace=wrap;html=1;fillColor=#d5e8d4;strokeColor=none;" parent="1" vertex="1">
          <mxGeometry x="420" y="680" width="130" height="60" as="geometry" />
        </mxCell>
        <mxCell id="h22mPx_gXA2pDTQSfuNM-68" value="completed" style="rounded=1;whiteSpace=wrap;html=1;verticalAlign=top;align=left;fillColor=#6d8764;fontFamily=Tahoma;strokeColor=none;fontColor=#ffffff;" parent="1" vertex="1">
          <mxGeometry x="425.5" y="685" width="78.5" height="24" as="geometry" />
        </mxCell>
        <mxCell id="h22mPx_gXA2pDTQSfuNM-69" value="" style="endArrow=open;html=1;entryX=0.815;entryY=0.013;entryDx=0;entryDy=0;entryPerimeter=0;strokeWidth=2;fillColor=#f0a30a;strokeColor=#BD7000;endFill=0;rounded=0;" parent="1" target="h22mPx_gXA2pDTQSfuNM-59" edge="1">
          <mxGeometry width="50" height="50" relative="1" as="geometry">
            <mxPoint x="700" y="483" as="sourcePoint" />
            <mxPoint x="830" y="383" as="targetPoint" />
            <Array as="points" />
          </mxGeometry>
        </mxCell>
        <mxCell id="h22mPx_gXA2pDTQSfuNM-70" value="(Add custody payment&lt;br&gt;to queue)" style="edgeLabel;html=1;align=center;verticalAlign=middle;resizable=0;points=[];fontColor=#67c4fd;" parent="h22mPx_gXA2pDTQSfuNM-69" vertex="1" connectable="0">
          <mxGeometry x="0.0485" relative="1" as="geometry">
            <mxPoint y="-2" as="offset" />
          </mxGeometry>
        </mxCell>
        <mxCell id="h22mPx_gXA2pDTQSfuNM-71" value="" style="endArrow=open;html=1;rounded=0;strokeColor=#9b1599;strokeWidth=2;endFill=0;" parent="1" edge="1">
          <mxGeometry width="50" height="50" relative="1" as="geometry">
            <mxPoint x="450" y="535" as="sourcePoint" />
            <mxPoint x="450" y="620" as="targetPoint" />
            <Array as="points">
              <mxPoint x="450" y="583" />
            </Array>
          </mxGeometry>
        </mxCell>
        <mxCell id="h22mPx_gXA2pDTQSfuNM-72" value="" style="endArrow=open;html=1;rounded=0;strokeWidth=2;endFill=0;" parent="1" edge="1">
          <mxGeometry width="50" height="50" relative="1" as="geometry">
            <mxPoint x="450" y="620" as="sourcePoint" />
            <mxPoint x="450" y="683" as="targetPoint" />
            <Array as="points">
              <mxPoint x="450" y="630" />
            </Array>
          </mxGeometry>
        </mxCell>
        <mxCell id="h22mPx_gXA2pDTQSfuNM-73" value="notify_onchain_funds_sent" style="edgeLabel;html=1;align=center;verticalAlign=middle;resizable=0;points=[];" parent="h22mPx_gXA2pDTQSfuNM-72" vertex="1" connectable="0">
          <mxGeometry x="-0.3488" y="-1" relative="1" as="geometry">
            <mxPoint x="16" y="-4" as="offset" />
          </mxGeometry>
        </mxCell>
        <mxCell id="h22mPx_gXA2pDTQSfuNM-74" value="" style="endArrow=open;html=1;rounded=1;entryX=0.35;entryY=0.986;entryDx=0;entryDy=0;entryPerimeter=0;strokeWidth=2;endFill=0;" parent="1" target="h22mPx_gXA2pDTQSfuNM-31" edge="1">
          <mxGeometry width="50" height="50" relative="1" as="geometry">
            <mxPoint x="330" y="588" as="sourcePoint" />
            <mxPoint x="380" y="548" as="targetPoint" />
            <Array as="points">
              <mxPoint x="360" y="588" />
              <mxPoint x="380" y="588" />
            </Array>
          </mxGeometry>
        </mxCell>
        <mxCell id="h22mPx_gXA2pDTQSfuNM-75" value="notify_refund_sent" style="edgeLabel;html=1;align=center;verticalAlign=middle;resizable=0;points=[];" parent="h22mPx_gXA2pDTQSfuNM-74" vertex="1" connectable="0">
          <mxGeometry x="0.3847" relative="1" as="geometry">
            <mxPoint as="offset" />
          </mxGeometry>
        </mxCell>
        <mxCell id="vpoRM2uFi_mH02E-wiQt-1" style="edgeStyle=orthogonalEdgeStyle;rounded=0;orthogonalLoop=1;jettySize=auto;html=1;exitX=1;exitY=0;exitDx=0;exitDy=0;entryX=0.85;entryY=1.035;entryDx=0;entryDy=0;entryPerimeter=0;strokeWidth=2;" edge="1" parent="1" source="h22mPx_gXA2pDTQSfuNM-31" target="h22mPx_gXA2pDTQSfuNM-35">
          <mxGeometry relative="1" as="geometry">
            <Array as="points">
              <mxPoint x="771" y="465" />
            </Array>
          </mxGeometry>
        </mxCell>
        <mxCell id="vpoRM2uFi_mH02E-wiQt-2" value="notify_customer_info_updated" style="edgeLabel;html=1;align=center;verticalAlign=middle;resizable=0;points=[];" vertex="1" connectable="0" parent="vpoRM2uFi_mH02E-wiQt-1">
          <mxGeometry x="0.8248" y="-1" relative="1" as="geometry">
            <mxPoint as="offset" />
          </mxGeometry>
        </mxCell>
      </root>
    </mxGraphModel>
  </diagram>
  <diagram name="Sep-6 - withdraw v0.1" id="UIC8OuvjWzg0fr7KOYpk">
    <mxGraphModel dx="5943" dy="869" grid="1" gridSize="10" guides="1" tooltips="1" connect="1" arrows="1" fold="1" page="1" pageScale="1" pageWidth="850" pageHeight="1100" math="0" shadow="0">
      <root>
        <mxCell id="0" />
        <mxCell id="1" parent="0" />
        <mxCell id="oIPxhnnp816XKOSVBjuA-1" value="" style="rounded=0;whiteSpace=wrap;html=1;strokeColor=none;" parent="1" vertex="1">
          <mxGeometry x="-4204" width="1120.5" height="770" as="geometry" />
        </mxCell>
        <mxCell id="oIPxhnnp816XKOSVBjuA-2" value="" style="endArrow=open;html=1;rounded=1;exitX=0.5;exitY=1;exitDx=0;exitDy=0;entryX=0.5;entryY=0;entryDx=0;entryDy=0;strokeWidth=2;endFill=0;" parent="1" source="oIPxhnnp816XKOSVBjuA-25" edge="1">
          <mxGeometry width="50" height="50" relative="1" as="geometry">
            <mxPoint x="-3686" y="359.1199999999999" as="sourcePoint" />
            <mxPoint x="-3686" y="460" as="targetPoint" />
          </mxGeometry>
        </mxCell>
        <mxCell id="oIPxhnnp816XKOSVBjuA-3" value="notify_onchain_funds_received" style="edgeLabel;html=1;align=center;verticalAlign=middle;resizable=0;points=[];" parent="oIPxhnnp816XKOSVBjuA-2" connectable="0" vertex="1">
          <mxGeometry x="-0.1542" y="3" relative="1" as="geometry">
            <mxPoint x="-2" y="-7" as="offset" />
          </mxGeometry>
        </mxCell>
        <mxCell id="oIPxhnnp816XKOSVBjuA-4" value="" style="endArrow=open;html=1;rounded=1;exitX=0.844;exitY=1.017;exitDx=0;exitDy=0;exitPerimeter=0;strokeWidth=2;endFill=0;" parent="1" source="oIPxhnnp816XKOSVBjuA-47" edge="1">
          <mxGeometry width="50" height="50" relative="1" as="geometry">
            <mxPoint x="-3626.16" y="500.44000000000005" as="sourcePoint" />
            <mxPoint x="-3626" y="675.88" as="targetPoint" />
          </mxGeometry>
        </mxCell>
        <mxCell id="oIPxhnnp816XKOSVBjuA-5" value="notify_offchain_funds_sent" style="edgeLabel;html=1;align=center;verticalAlign=middle;resizable=0;points=[];" parent="oIPxhnnp816XKOSVBjuA-4" connectable="0" vertex="1">
          <mxGeometry x="-0.5215" y="1" relative="1" as="geometry">
            <mxPoint x="13" y="91" as="offset" />
          </mxGeometry>
        </mxCell>
        <mxCell id="oIPxhnnp816XKOSVBjuA-6" value="" style="endArrow=open;html=1;exitX=0.178;exitY=0.983;exitDx=0;exitDy=0;exitPerimeter=0;entryX=0.75;entryY=0;entryDx=0;entryDy=0;strokeWidth=2;rounded=1;endFill=0;" parent="1" source="oIPxhnnp816XKOSVBjuA-47" edge="1">
          <mxGeometry width="50" height="50" relative="1" as="geometry">
            <mxPoint x="-3745.84" y="501.1199999999999" as="sourcePoint" />
            <mxPoint x="-3746" y="677.51" as="targetPoint" />
          </mxGeometry>
        </mxCell>
        <mxCell id="oIPxhnnp816XKOSVBjuA-7" value="notify_refund_sent" style="edgeLabel;html=1;align=center;verticalAlign=middle;resizable=0;points=[];" parent="oIPxhnnp816XKOSVBjuA-6" connectable="0" vertex="1">
          <mxGeometry x="-0.5594" relative="1" as="geometry">
            <mxPoint y="95" as="offset" />
          </mxGeometry>
        </mxCell>
        <mxCell id="oIPxhnnp816XKOSVBjuA-8" value="SEP6 withdrawal flow" style="text;html=1;strokeColor=none;fillColor=none;align=center;verticalAlign=middle;whiteSpace=wrap;rounded=0;fontSize=17;fontStyle=1" parent="1" vertex="1">
          <mxGeometry x="-3806" width="240" height="30" as="geometry" />
        </mxCell>
        <mxCell id="oIPxhnnp816XKOSVBjuA-9" value="" style="endArrow=open;html=1;rounded=1;entryX=0.5;entryY=1;entryDx=0;entryDy=0;strokeWidth=2;endFill=0;" parent="1" target="oIPxhnnp816XKOSVBjuA-47" edge="1">
          <mxGeometry width="50" height="50" relative="1" as="geometry">
            <mxPoint x="-3746" y="578" as="sourcePoint" />
            <mxPoint x="-3686" y="502" as="targetPoint" />
            <Array as="points">
              <mxPoint x="-3686" y="578" />
            </Array>
          </mxGeometry>
        </mxCell>
        <mxCell id="oIPxhnnp816XKOSVBjuA-10" value="notify_refund_sent" style="edgeLabel;html=1;align=center;verticalAlign=middle;resizable=0;points=[];" parent="1" connectable="0" vertex="1">
          <mxGeometry x="-3676.995246557625" y="559.8771268714064" as="geometry">
            <mxPoint x="-14" y="-6" as="offset" />
          </mxGeometry>
        </mxCell>
        <mxCell id="oIPxhnnp816XKOSVBjuA-11" value="" style="endArrow=open;html=1;rounded=1;exitX=0.15;exitY=-0.054;exitDx=0;exitDy=0;exitPerimeter=0;entryX=0.877;entryY=-0.022;entryDx=0;entryDy=0;entryPerimeter=0;jumpStyle=arc;strokeWidth=2;endFill=0;" parent="1" edge="1">
          <mxGeometry width="50" height="50" relative="1" as="geometry">
            <mxPoint x="-3742" y="460.9999999999999" as="sourcePoint" />
            <mxPoint x="-3625.68" y="460.1199999999999" as="targetPoint" />
            <Array as="points">
              <mxPoint x="-3742" y="423" />
              <mxPoint x="-3626" y="423" />
              <mxPoint x="-3626" y="441" />
            </Array>
          </mxGeometry>
        </mxCell>
        <mxCell id="oIPxhnnp816XKOSVBjuA-12" value="notify_amounts_updated" style="edgeLabel;html=1;align=center;verticalAlign=middle;resizable=0;points=[];" parent="oIPxhnnp816XKOSVBjuA-11" connectable="0" vertex="1">
          <mxGeometry x="-0.2381" y="1" relative="1" as="geometry">
            <mxPoint x="95" y="17" as="offset" />
          </mxGeometry>
        </mxCell>
        <mxCell id="oIPxhnnp816XKOSVBjuA-13" value="" style="endArrow=open;html=1;rounded=1;exitX=1;exitY=0.25;exitDx=0;exitDy=0;entryX=0.5;entryY=0;entryDx=0;entryDy=0;strokeWidth=2;endFill=0;" parent="1" edge="1">
          <mxGeometry width="50" height="50" relative="1" as="geometry">
            <mxPoint x="-3632" y="487" as="sourcePoint" />
            <mxPoint x="-3251.5" y="546.8800000000001" as="targetPoint" />
            <Array as="points">
              <mxPoint x="-3252" y="487" />
            </Array>
          </mxGeometry>
        </mxCell>
        <mxCell id="oIPxhnnp816XKOSVBjuA-14" value="notify_offchain_funds_pending" style="edgeLabel;html=1;align=center;verticalAlign=middle;resizable=0;points=[];" parent="oIPxhnnp816XKOSVBjuA-13" connectable="0" vertex="1">
          <mxGeometry x="-0.1591" y="-2" relative="1" as="geometry">
            <mxPoint x="64" as="offset" />
          </mxGeometry>
        </mxCell>
        <mxCell id="oIPxhnnp816XKOSVBjuA-15" value="" style="rounded=1;whiteSpace=wrap;html=1;fillColor=#d5e8d4;strokeColor=none;" parent="1" vertex="1">
          <mxGeometry x="-3656" y="677.51" width="180" height="60" as="geometry" />
        </mxCell>
        <mxCell id="oIPxhnnp816XKOSVBjuA-16" value="completed" style="rounded=1;whiteSpace=wrap;html=1;verticalAlign=top;align=left;fillColor=#6d8764;fontFamily=Tahoma;strokeColor=none;fontColor=#ffffff;" parent="1" vertex="1">
          <mxGeometry x="-3646" y="682.51" width="105" height="30" as="geometry" />
        </mxCell>
        <mxCell id="oIPxhnnp816XKOSVBjuA-17" value="" style="rounded=1;whiteSpace=wrap;html=1;fillColor=#d5e8d4;strokeColor=none;" parent="1" vertex="1">
          <mxGeometry x="-3857" y="678" width="180" height="60" as="geometry" />
        </mxCell>
        <mxCell id="oIPxhnnp816XKOSVBjuA-18" value="refunded" style="rounded=1;whiteSpace=wrap;html=1;verticalAlign=top;align=left;fillColor=#6d8764;fontFamily=Tahoma;strokeColor=none;fontColor=#ffffff;" parent="1" vertex="1">
          <mxGeometry x="-3847" y="682.51" width="105" height="30" as="geometry" />
        </mxCell>
        <mxCell id="oIPxhnnp816XKOSVBjuA-19" style="edgeStyle=orthogonalEdgeStyle;rounded=1;orthogonalLoop=1;jettySize=auto;html=1;exitX=0.5;exitY=1;exitDx=0;exitDy=0;entryX=0.5;entryY=0;entryDx=0;entryDy=0;strokeWidth=2;endArrow=open;endFill=0;" parent="1" source="oIPxhnnp816XKOSVBjuA-23" target="oIPxhnnp816XKOSVBjuA-25" edge="1">
          <mxGeometry relative="1" as="geometry" />
        </mxCell>
        <mxCell id="oIPxhnnp816XKOSVBjuA-20" value="request_onchain_funds&lt;br style=&quot;border-color: var(--border-color);&quot;&gt;(&lt;font style=&quot;border-color: var(--border-color);&quot; color=&quot;#0066cc&quot;&gt;Create custody transaction*&lt;br style=&quot;border-color: var(--border-color);&quot;&gt;&lt;/font&gt;&lt;font style=&quot;border-color: var(--border-color);&quot; color=&quot;#0066cc&quot;&gt;Generate custody address and memo*&lt;/font&gt;)" style="edgeLabel;html=1;align=center;verticalAlign=middle;resizable=0;points=[];" parent="oIPxhnnp816XKOSVBjuA-19" vertex="1" connectable="0">
          <mxGeometry x="0.5099" y="1" relative="1" as="geometry">
            <mxPoint as="offset" />
          </mxGeometry>
        </mxCell>
        <mxCell id="oIPxhnnp816XKOSVBjuA-21" style="edgeStyle=orthogonalEdgeStyle;rounded=1;orthogonalLoop=1;jettySize=auto;html=1;exitX=1;exitY=0.5;exitDx=0;exitDy=0;strokeWidth=2;endArrow=open;endFill=0;" parent="1" source="oIPxhnnp816XKOSVBjuA-23" target="oIPxhnnp816XKOSVBjuA-28" edge="1">
          <mxGeometry relative="1" as="geometry" />
        </mxCell>
        <mxCell id="oIPxhnnp816XKOSVBjuA-22" value="notify_customer_info_updated" style="edgeLabel;html=1;align=center;verticalAlign=middle;resizable=0;points=[];" parent="oIPxhnnp816XKOSVBjuA-21" vertex="1" connectable="0">
          <mxGeometry x="0.7931" y="-1" relative="1" as="geometry">
            <mxPoint as="offset" />
          </mxGeometry>
        </mxCell>
        <mxCell id="oIPxhnnp816XKOSVBjuA-23" value="" style="rounded=1;whiteSpace=wrap;html=1;fillColor=#d5e8d4;strokeColor=none;" parent="1" vertex="1">
          <mxGeometry x="-3777" y="65" width="180" height="60" as="geometry" />
        </mxCell>
        <mxCell id="oIPxhnnp816XKOSVBjuA-24" value="incomplete" style="rounded=1;whiteSpace=wrap;html=1;verticalAlign=top;align=left;fillColor=#6d8764;fontFamily=Tahoma;strokeColor=none;fontColor=#ffffff;" parent="1" vertex="1">
          <mxGeometry x="-3772" y="75" width="105" height="30" as="geometry" />
        </mxCell>
        <mxCell id="oIPxhnnp816XKOSVBjuA-25" value="" style="rounded=1;whiteSpace=wrap;html=1;fillColor=#d5e8d4;strokeColor=none;" parent="1" vertex="1">
          <mxGeometry x="-3777" y="309.12" width="180" height="60" as="geometry" />
        </mxCell>
        <mxCell id="oIPxhnnp816XKOSVBjuA-26" value="pending_user_transfer_start" style="rounded=1;whiteSpace=wrap;html=1;verticalAlign=top;align=left;fillColor=#6d8764;fontFamily=Tahoma;strokeColor=none;fontColor=#ffffff;" parent="1" vertex="1">
          <mxGeometry x="-3772" y="314.12" width="160" height="30.88" as="geometry" />
        </mxCell>
        <mxCell id="oIPxhnnp816XKOSVBjuA-27" style="edgeStyle=orthogonalEdgeStyle;rounded=1;orthogonalLoop=1;jettySize=auto;html=1;exitX=0.5;exitY=1;exitDx=0;exitDy=0;strokeWidth=2;endArrow=open;endFill=0;" parent="1" source="oIPxhnnp816XKOSVBjuA-28" edge="1">
          <mxGeometry relative="1" as="geometry">
            <mxPoint x="-3686" y="190" as="targetPoint" />
          </mxGeometry>
        </mxCell>
        <mxCell id="oIPxhnnp816XKOSVBjuA-28" value="" style="rounded=1;whiteSpace=wrap;html=1;fillColor=#fff2cc;strokeColor=none;" parent="1" vertex="1">
          <mxGeometry x="-3456" y="150" width="194" height="60" as="geometry" />
        </mxCell>
        <mxCell id="oIPxhnnp816XKOSVBjuA-29" value="&lt;font face=&quot;Tahoma&quot;&gt;pending_customer_info_update&lt;/font&gt;" style="rounded=1;whiteSpace=wrap;html=1;align=left;verticalAlign=top;strokeColor=none;fillColor=#f0a30a;fontColor=#000000;" parent="1" vertex="1">
          <mxGeometry x="-3446" y="160" width="174" height="30" as="geometry" />
        </mxCell>
        <mxCell id="oIPxhnnp816XKOSVBjuA-30" style="edgeStyle=orthogonalEdgeStyle;rounded=1;orthogonalLoop=1;jettySize=auto;html=1;exitX=1;exitY=0.5;exitDx=0;exitDy=0;strokeWidth=2;endArrow=open;endFill=0;" parent="1" source="oIPxhnnp816XKOSVBjuA-32" edge="1">
          <mxGeometry relative="1" as="geometry">
            <mxPoint x="-3746" y="577" as="targetPoint" />
          </mxGeometry>
        </mxCell>
        <mxCell id="oIPxhnnp816XKOSVBjuA-31" value="(&lt;font style=&quot;border-color: var(--border-color);&quot; color=&quot;#0066cc&quot;&gt;Update&lt;/font&gt;&lt;font style=&quot;border-color: var(--border-color); color: rgb(0, 153, 227);&quot;&gt;&amp;nbsp;&lt;/font&gt;&lt;font style=&quot;border-color: var(--border-color);&quot; color=&quot;#0066cc&quot;&gt;custody payment&lt;/font&gt;)" style="edgeLabel;html=1;align=center;verticalAlign=middle;resizable=0;points=[];" parent="oIPxhnnp816XKOSVBjuA-30" vertex="1" connectable="0">
          <mxGeometry x="-0.0909" y="1" relative="1" as="geometry">
            <mxPoint as="offset" />
          </mxGeometry>
        </mxCell>
        <mxCell id="oIPxhnnp816XKOSVBjuA-32" value="" style="rounded=1;whiteSpace=wrap;html=1;fillColor=#fff2cc;strokeColor=none;" parent="1" vertex="1">
          <mxGeometry x="-4036" y="546.88" width="130" height="60" as="geometry" />
        </mxCell>
        <mxCell id="oIPxhnnp816XKOSVBjuA-33" value="&lt;font face=&quot;Tahoma&quot;&gt;pending_stellar&lt;/font&gt;" style="rounded=1;whiteSpace=wrap;html=1;align=left;verticalAlign=top;strokeColor=none;fillColor=#f0a30a;fontColor=#000000;" parent="1" vertex="1">
          <mxGeometry x="-4030" y="552.88" width="100" height="30" as="geometry" />
        </mxCell>
        <mxCell id="oIPxhnnp816XKOSVBjuA-34" style="edgeStyle=orthogonalEdgeStyle;rounded=1;orthogonalLoop=1;jettySize=auto;html=1;exitX=0.5;exitY=1;exitDx=0;exitDy=0;strokeWidth=2;endArrow=open;endFill=0;" parent="1" edge="1">
          <mxGeometry relative="1" as="geometry">
            <mxPoint x="-3454" y="630" as="targetPoint" />
            <mxPoint x="-3253" y="606.8800000000001" as="sourcePoint" />
            <Array as="points">
              <mxPoint x="-3253" y="630" />
            </Array>
          </mxGeometry>
        </mxCell>
        <mxCell id="oIPxhnnp816XKOSVBjuA-35" value="" style="rounded=1;whiteSpace=wrap;html=1;fillColor=#fff2cc;strokeColor=none;" parent="1" vertex="1">
          <mxGeometry x="-3316" y="546.88" width="130" height="60" as="geometry" />
        </mxCell>
        <mxCell id="oIPxhnnp816XKOSVBjuA-36" value="&lt;font face=&quot;Tahoma&quot;&gt;pending_external&lt;/font&gt;" style="rounded=1;whiteSpace=wrap;html=1;align=left;verticalAlign=top;strokeColor=none;fillColor=#f0a30a;fontColor=#000000;" parent="1" vertex="1">
          <mxGeometry x="-3308" y="552.88" width="100" height="30" as="geometry" />
        </mxCell>
        <mxCell id="oIPxhnnp816XKOSVBjuA-37" style="edgeStyle=orthogonalEdgeStyle;rounded=1;orthogonalLoop=1;jettySize=auto;html=1;endArrow=open;endFill=0;strokeWidth=2;" parent="1" edge="1">
          <mxGeometry relative="1" as="geometry">
            <mxPoint x="-3627" y="630" as="targetPoint" />
            <mxPoint x="-3452" y="607" as="sourcePoint" />
            <Array as="points">
              <mxPoint x="-3452" y="607" />
              <mxPoint x="-3452" y="630" />
            </Array>
          </mxGeometry>
        </mxCell>
        <mxCell id="oIPxhnnp816XKOSVBjuA-38" value="" style="rounded=1;whiteSpace=wrap;html=1;fillColor=#fff2cc;strokeColor=none;" parent="1" vertex="1">
          <mxGeometry x="-3560" y="546.88" width="210" height="60" as="geometry" />
        </mxCell>
        <mxCell id="oIPxhnnp816XKOSVBjuA-39" value="pending_user_transfer_complete" style="rounded=1;whiteSpace=wrap;html=1;align=left;verticalAlign=top;strokeColor=none;fillColor=#f0a30a;fontColor=#000000;" parent="1" vertex="1">
          <mxGeometry x="-3551" y="552.88" width="190" height="37.12" as="geometry" />
        </mxCell>
        <mxCell id="oIPxhnnp816XKOSVBjuA-40" style="edgeStyle=orthogonalEdgeStyle;rounded=1;orthogonalLoop=1;jettySize=auto;html=1;exitX=0.5;exitY=1;exitDx=0;exitDy=0;entryX=0.5;entryY=0;entryDx=0;entryDy=0;strokeWidth=2;endArrow=open;endFill=0;" parent="1" source="oIPxhnnp816XKOSVBjuA-42" target="oIPxhnnp816XKOSVBjuA-51" edge="1">
          <mxGeometry relative="1" as="geometry" />
        </mxCell>
        <mxCell id="oIPxhnnp816XKOSVBjuA-41" value="notify_transaction_error&lt;br style=&quot;border-color: var(--border-color);&quot;&gt;notify_transaction_expired" style="edgeLabel;html=1;align=center;verticalAlign=middle;resizable=0;points=[];" parent="oIPxhnnp816XKOSVBjuA-40" vertex="1" connectable="0">
          <mxGeometry x="0.0099" y="-1" relative="1" as="geometry">
            <mxPoint as="offset" />
          </mxGeometry>
        </mxCell>
        <mxCell id="oIPxhnnp816XKOSVBjuA-42" value="&lt;font style=&quot;&quot; face=&quot;Tahoma&quot;&gt;Any status other than completed or refunded&lt;/font&gt;" style="rounded=1;whiteSpace=wrap;html=1;fillColor=#f5f5f5;align=center;verticalAlign=top;fontColor=#333333;strokeColor=none;" parent="1" vertex="1">
          <mxGeometry x="-4036" y="210" width="130" height="70" as="geometry" />
        </mxCell>
        <mxCell id="oIPxhnnp816XKOSVBjuA-43" style="edgeStyle=orthogonalEdgeStyle;rounded=1;orthogonalLoop=1;jettySize=auto;html=1;exitX=0;exitY=0.5;exitDx=0;exitDy=0;entryX=0.5;entryY=0;entryDx=0;entryDy=0;strokeWidth=2;endArrow=open;endFill=0;" parent="1" source="oIPxhnnp816XKOSVBjuA-47" target="oIPxhnnp816XKOSVBjuA-32" edge="1">
          <mxGeometry relative="1" as="geometry" />
        </mxCell>
        <mxCell id="oIPxhnnp816XKOSVBjuA-44" value="do_stellar_refund&lt;br style=&quot;border-color: var(--border-color);&quot;&gt;(&lt;font style=&quot;border-color: var(--border-color);&quot; color=&quot;#0066cc&quot;&gt;Do&amp;nbsp;custody payment&lt;/font&gt;)" style="edgeLabel;html=1;align=center;verticalAlign=middle;resizable=0;points=[];" parent="oIPxhnnp816XKOSVBjuA-43" vertex="1" connectable="0">
          <mxGeometry x="0.8113" relative="1" as="geometry">
            <mxPoint y="-13" as="offset" />
          </mxGeometry>
        </mxCell>
        <mxCell id="oIPxhnnp816XKOSVBjuA-45" style="edgeStyle=orthogonalEdgeStyle;rounded=1;orthogonalLoop=1;jettySize=auto;html=1;exitX=1;exitY=0.75;exitDx=0;exitDy=0;entryX=0.5;entryY=0;entryDx=0;entryDy=0;strokeWidth=2;endArrow=open;endFill=0;" parent="1" source="oIPxhnnp816XKOSVBjuA-47" target="oIPxhnnp816XKOSVBjuA-38" edge="1">
          <mxGeometry relative="1" as="geometry" />
        </mxCell>
        <mxCell id="oIPxhnnp816XKOSVBjuA-46" value="notify_offchain_funds_available" style="edgeLabel;html=1;align=center;verticalAlign=middle;resizable=0;points=[];" parent="oIPxhnnp816XKOSVBjuA-45" vertex="1" connectable="0">
          <mxGeometry x="0.7403" relative="1" as="geometry">
            <mxPoint as="offset" />
          </mxGeometry>
        </mxCell>
        <mxCell id="WE7Ez4UL4-nEQ3QiVx3r-1" style="edgeStyle=orthogonalEdgeStyle;rounded=0;orthogonalLoop=1;jettySize=auto;html=1;exitX=1;exitY=0.25;exitDx=0;exitDy=0;entryX=0.75;entryY=1;entryDx=0;entryDy=0;strokeWidth=2;" edge="1" parent="1" source="oIPxhnnp816XKOSVBjuA-47" target="oIPxhnnp816XKOSVBjuA-28">
          <mxGeometry relative="1" as="geometry" />
        </mxCell>
        <mxCell id="WE7Ez4UL4-nEQ3QiVx3r-2" value="notify_customer_info_updated" style="edgeLabel;html=1;align=center;verticalAlign=middle;resizable=0;points=[];" vertex="1" connectable="0" parent="WE7Ez4UL4-nEQ3QiVx3r-1">
          <mxGeometry x="0.4544" y="-1" relative="1" as="geometry">
            <mxPoint x="1" y="1" as="offset" />
          </mxGeometry>
        </mxCell>
        <mxCell id="oIPxhnnp816XKOSVBjuA-47" value="" style="rounded=1;whiteSpace=wrap;html=1;fillColor=#d5e8d4;strokeColor=#82b366;" parent="1" vertex="1">
          <mxGeometry x="-3778" y="461" width="180" height="60" as="geometry" />
        </mxCell>
        <mxCell id="oIPxhnnp816XKOSVBjuA-48" value="pending_anchor" style="rounded=1;whiteSpace=wrap;html=1;verticalAlign=top;align=left;fillColor=#6d8764;fontFamily=Tahoma;strokeColor=none;fontColor=#ffffff;" parent="1" vertex="1">
          <mxGeometry x="-3773" y="466" width="100" height="30.88" as="geometry" />
        </mxCell>
        <mxCell id="oIPxhnnp816XKOSVBjuA-49" style="edgeStyle=orthogonalEdgeStyle;rounded=1;orthogonalLoop=1;jettySize=auto;html=1;exitX=0.5;exitY=1;exitDx=0;exitDy=0;entryX=0;entryY=0.25;entryDx=0;entryDy=0;strokeWidth=2;endArrow=open;endFill=0;" parent="1" source="oIPxhnnp816XKOSVBjuA-51" target="oIPxhnnp816XKOSVBjuA-47" edge="1">
          <mxGeometry relative="1" as="geometry" />
        </mxCell>
        <mxCell id="oIPxhnnp816XKOSVBjuA-50" value="notify_transaction_recovery" style="edgeLabel;html=1;align=center;verticalAlign=middle;resizable=0;points=[];" parent="oIPxhnnp816XKOSVBjuA-49" vertex="1" connectable="0">
          <mxGeometry x="-0.7592" y="-1" relative="1" as="geometry">
            <mxPoint as="offset" />
          </mxGeometry>
        </mxCell>
        <mxCell id="oIPxhnnp816XKOSVBjuA-51" value="" style="rounded=1;whiteSpace=wrap;html=1;fillColor=#f8cecc;strokeColor=none;" parent="1" vertex="1">
          <mxGeometry x="-4036" y="369.12" width="130" height="60" as="geometry" />
        </mxCell>
        <mxCell id="oIPxhnnp816XKOSVBjuA-52" value="&lt;font face=&quot;Tahoma&quot;&gt;error/expired&lt;/font&gt;" style="rounded=1;whiteSpace=wrap;html=1;align=left;verticalAlign=top;strokeColor=none;fillColor=#e51400;fontColor=#ffffff;" parent="1" vertex="1">
          <mxGeometry x="-4028" y="375.12" width="80" height="25" as="geometry" />
        </mxCell>
        <mxCell id="oIPxhnnp816XKOSVBjuA-53" value="" style="group" parent="1" vertex="1" connectable="0">
          <mxGeometry x="-4250" y="65" width="508" height="163" as="geometry" />
        </mxCell>
        <mxCell id="oIPxhnnp816XKOSVBjuA-54" value="" style="rounded=1;whiteSpace=wrap;html=1;fillColor=#d5e8d4;strokeColor=none;" parent="oIPxhnnp816XKOSVBjuA-53" vertex="1">
          <mxGeometry x="74" y="5" width="50" height="20" as="geometry" />
        </mxCell>
        <mxCell id="oIPxhnnp816XKOSVBjuA-55" value="shortest e2e status flow" style="text;strokeColor=none;align=center;fillColor=none;html=1;verticalAlign=middle;whiteSpace=wrap;rounded=0;" parent="oIPxhnnp816XKOSVBjuA-53" vertex="1">
          <mxGeometry x="124" width="146" height="30" as="geometry" />
        </mxCell>
        <mxCell id="oIPxhnnp816XKOSVBjuA-56" value="" style="rounded=1;whiteSpace=wrap;html=1;fillColor=#fff2cc;strokeColor=none;" parent="oIPxhnnp816XKOSVBjuA-53" vertex="1">
          <mxGeometry x="74" y="30" width="50" height="20" as="geometry" />
        </mxCell>
        <mxCell id="oIPxhnnp816XKOSVBjuA-57" value="optional status, available for business" style="text;strokeColor=none;align=center;fillColor=none;html=1;verticalAlign=middle;whiteSpace=wrap;rounded=0;" parent="oIPxhnnp816XKOSVBjuA-53" vertex="1">
          <mxGeometry x="122" y="25" width="220" height="30" as="geometry" />
        </mxCell>
        <mxCell id="oIPxhnnp816XKOSVBjuA-58" value="(&lt;font style=&quot;border-color: var(--border-color); text-align: left;&quot; color=&quot;#66b2ff&quot;&gt;function&lt;/font&gt;&lt;span style=&quot;text-align: left;&quot;&gt;)&lt;/span&gt;" style="rounded=1;whiteSpace=wrap;html=1;fillColor=none;strokeColor=none;" parent="oIPxhnnp816XKOSVBjuA-53" vertex="1">
          <mxGeometry x="74" y="55" width="54" height="20" as="geometry" />
        </mxCell>
        <mxCell id="oIPxhnnp816XKOSVBjuA-59" value="&lt;font style=&quot;border-color: var(--border-color); text-align: left;&quot;&gt;a side effect that will be triggered by an action&lt;/font&gt;" style="text;strokeColor=none;align=left;fillColor=none;html=1;verticalAlign=middle;whiteSpace=wrap;rounded=0;labelPosition=right;verticalLabelPosition=middle;" parent="oIPxhnnp816XKOSVBjuA-53" vertex="1">
          <mxGeometry x="-142" y="50" width="270" height="30" as="geometry" />
        </mxCell>
      </root>
    </mxGraphModel>
  </diagram>
</mxfile>
